<svg width="334" height="51" viewBox="0 0 334 51" fill="none" xmlns="http://www.w3.org/2000/svg">
    <mask id="path-1-outside-1_5941_6124" maskUnits="userSpaceOnUse" x="-3" y="3.8418" width="229" height="45" fill="black">
        <rect fill="white" x="-3" y="3.8418" width="229" height="45"/>
        <path d="M3.8 31.6418C4.43333 32.1418 5.51667 32.8251 7.05 33.6918C8.61667 34.5585 10.1 34.9918 11.5 34.9918C12.9333 34.9918 13.65 34.4418 13.65 33.3418C13.65 32.8418 13.45 32.4085 13.05 32.0418C12.65 31.6418 11.9167 31.1918 10.85 30.6918C9.78333 30.1918 8.98333 29.8085 8.45 29.5418C7.91667 29.2418 7.2 28.7751 6.3 28.1418C5.43333 27.4751 4.76667 26.7918 4.3 26.0918C2.96667 24.1918 2.3 21.7751 2.3 18.8418C2.3 15.9085 3.38333 13.4418 5.55 11.4418C7.75 9.40846 10.6167 8.39179 14.15 8.39179C16.55 8.39179 18.7667 8.65846 20.8 9.1918C22.8333 9.6918 23.8833 10.3585 23.95 11.1918C23.95 11.2918 23.95 11.3918 23.95 11.4918C23.95 12.6585 23.5833 14.1418 22.85 15.9418C22.1167 17.7085 21.6 18.6918 21.3 18.8918C19.1667 17.7918 17.25 17.2418 15.55 17.2418C13.8833 17.2418 13.05 17.8418 13.05 19.0418C13.05 19.7751 13.6667 20.4251 14.9 20.9918C15.1667 21.1251 15.55 21.3085 16.05 21.5418C16.55 21.7751 17.1167 22.0585 17.75 22.3918C18.4167 22.6918 19.1167 23.0918 19.85 23.5918C20.6167 24.0585 21.4333 24.6918 22.3 25.4918C24.0667 27.1585 24.95 29.3585 24.95 32.0918C24.95 35.6585 23.9667 38.5751 22 40.8418C20.0333 43.1085 17 44.2751 12.9 44.3418C10.9 44.3418 9.08333 44.1751 7.45 43.8418C5.85 43.5085 4.45 42.8585 3.25 41.8918C2.05 40.9251 1.45 39.7585 1.45 38.3918C1.45 37.0251 1.7 35.6751 2.2 34.3418C2.7 32.9751 3.23333 32.0751 3.8 31.6418ZM57.7625 42.9918C57.7625 43.5585 56.0792 43.8418 52.7125 43.8418C49.3458 43.8418 47.6625 43.5585 47.6625 42.9918V31.4918H40.6625V42.9918C40.6625 43.5585 38.9792 43.8418 35.6125 43.8418C32.2458 43.8418 30.5625 43.5585 30.5625 42.9918V9.8418C30.5625 9.1418 32.2458 8.7918 35.6125 8.7918C38.9792 8.7918 40.6625 9.1418 40.6625 9.8418V21.5918H47.6625V9.9418C47.6625 9.47513 48.4958 9.1418 50.1625 8.9418C51.0292 8.87513 51.8792 8.84179 52.7125 8.84179L55.2625 8.9418C56.9292 9.1418 57.7625 9.47513 57.7625 9.9418V42.9918ZM79.0902 44.3418C74.4236 44.3418 70.6069 42.8085 67.6402 39.7418C64.7069 36.6751 63.2402 32.2085 63.2402 26.3418C63.2402 20.4418 64.7236 15.9751 67.6902 12.9418C70.6902 9.90846 74.5402 8.39179 79.2402 8.39179C83.9736 8.39179 87.7902 9.89179 90.6902 12.8918C93.5902 15.8585 95.0402 20.3751 95.0402 26.4418C95.0402 32.4751 93.5569 36.9751 90.5902 39.9418C87.6236 42.8751 83.7902 44.3418 79.0902 44.3418ZM79.1402 17.9918C77.5402 17.9918 76.1902 18.7251 75.0902 20.1918C74.0236 21.6585 73.4902 23.7251 73.4902 26.3918C73.4902 29.0251 74.0069 31.0585 75.0402 32.4918C76.0736 33.8918 77.4236 34.5918 79.0902 34.5918C80.7902 34.5918 82.1569 33.8751 83.1902 32.4418C84.2569 31.0085 84.7902 28.9585 84.7902 26.2918C84.7902 23.6251 84.2402 21.5751 83.1402 20.1418C82.0736 18.7085 80.7402 17.9918 79.1402 17.9918ZM104.905 43.9418C101.871 43.9418 100.355 43.6085 100.355 42.9418V10.5418C100.355 9.40846 100.871 8.84179 101.905 8.84179H110.705C115.638 8.84179 119.188 9.85846 121.355 11.8918C123.555 13.9251 124.655 16.8751 124.655 20.7418C124.655 23.9418 123.621 26.8751 121.555 29.5418C120.521 30.8751 119.005 31.9418 117.005 32.7418C115.005 33.5418 112.671 33.9418 110.005 33.9418V42.8918C110.005 43.2918 109.371 43.5751 108.105 43.7418C106.871 43.8751 105.805 43.9418 104.905 43.9418ZM110.005 17.5418V25.4418H110.655C111.821 25.4418 112.805 25.0751 113.605 24.3418C114.405 23.6085 114.805 22.5751 114.805 21.2418C114.805 19.9085 114.521 18.9585 113.955 18.3918C113.421 17.8251 112.455 17.5418 111.055 17.5418H110.005ZM157.97 42.7418C157.97 43.4418 156.404 43.7918 153.27 43.7918C150.137 43.7918 148.437 43.5418 148.17 43.0418L139.82 27.4418V42.9918C139.82 43.5918 138.27 43.8918 135.17 43.8918C132.104 43.8918 130.57 43.5918 130.57 42.9918V9.54179C130.57 9.04179 131.887 8.7918 134.52 8.7918C135.554 8.7918 136.754 8.89179 138.12 9.09179C139.52 9.25846 140.37 9.59179 140.67 10.0918L148.67 25.4918V9.79179C148.67 9.15846 150.22 8.84179 153.32 8.84179C156.42 8.84179 157.97 9.15846 157.97 9.79179V42.7418ZM180.742 22.7418C181.376 22.7418 181.692 23.9085 181.692 26.2418C181.692 26.9418 181.609 27.7751 181.442 28.7418C181.309 29.6751 181.042 30.1418 180.642 30.1418H174.292V35.1418H183.492C184.059 35.1418 184.442 35.8751 184.642 37.3418C184.742 37.9751 184.792 38.6585 184.792 39.3918C184.792 40.0918 184.692 41.0085 184.492 42.1418C184.292 43.2751 183.959 43.8418 183.492 43.8418H166.392C165.126 43.8418 164.492 43.3251 164.492 42.2918V10.1418C164.492 9.27513 164.876 8.84179 165.642 8.84179H183.542C184.242 8.84179 184.592 10.3251 184.592 13.2918C184.592 16.2251 184.242 17.6918 183.542 17.6918H174.292V22.7418H180.742ZM209.2 10.1918C209.6 9.1918 211.684 8.6918 215.45 8.6918C216.417 8.6918 217.6 8.77513 219 8.9418C220.434 9.07513 221.15 9.20846 221.15 9.34179L212.65 26.6418L221.45 43.1918C221.55 43.3585 220.834 43.5251 219.3 43.6918C217.767 43.8251 216.467 43.8918 215.4 43.8918C211.167 43.8918 208.85 43.3251 208.45 42.1918L204.7 32.6418L201.3 42.4918C200.967 43.4251 198.834 43.8918 194.9 43.8918C193.934 43.8918 192.734 43.8251 191.3 43.6918C189.867 43.5585 189.217 43.3751 189.35 43.1418L197.15 25.8418L189.05 9.34179C188.95 9.17513 189.634 9.02513 191.1 8.89179C192.6 8.72513 193.867 8.64179 194.9 8.64179C199.1 8.64179 201.4 9.24179 201.8 10.4418L205.25 18.8418L209.2 10.1918Z"/>
    </mask>
    <path d="M3.8 31.6418C4.43333 32.1418 5.51667 32.8251 7.05 33.6918C8.61667 34.5585 10.1 34.9918 11.5 34.9918C12.9333 34.9918 13.65 34.4418 13.65 33.3418C13.65 32.8418 13.45 32.4085 13.05 32.0418C12.65 31.6418 11.9167 31.1918 10.85 30.6918C9.78333 30.1918 8.98333 29.8085 8.45 29.5418C7.91667 29.2418 7.2 28.7751 6.3 28.1418C5.43333 27.4751 4.76667 26.7918 4.3 26.0918C2.96667 24.1918 2.3 21.7751 2.3 18.8418C2.3 15.9085 3.38333 13.4418 5.55 11.4418C7.75 9.40846 10.6167 8.39179 14.15 8.39179C16.55 8.39179 18.7667 8.65846 20.8 9.1918C22.8333 9.6918 23.8833 10.3585 23.95 11.1918C23.95 11.2918 23.95 11.3918 23.95 11.4918C23.95 12.6585 23.5833 14.1418 22.85 15.9418C22.1167 17.7085 21.6 18.6918 21.3 18.8918C19.1667 17.7918 17.25 17.2418 15.55 17.2418C13.8833 17.2418 13.05 17.8418 13.05 19.0418C13.05 19.7751 13.6667 20.4251 14.9 20.9918C15.1667 21.1251 15.55 21.3085 16.05 21.5418C16.55 21.7751 17.1167 22.0585 17.75 22.3918C18.4167 22.6918 19.1167 23.0918 19.85 23.5918C20.6167 24.0585 21.4333 24.6918 22.3 25.4918C24.0667 27.1585 24.95 29.3585 24.95 32.0918C24.95 35.6585 23.9667 38.5751 22 40.8418C20.0333 43.1085 17 44.2751 12.9 44.3418C10.9 44.3418 9.08333 44.1751 7.45 43.8418C5.85 43.5085 4.45 42.8585 3.25 41.8918C2.05 40.9251 1.45 39.7585 1.45 38.3918C1.45 37.0251 1.7 35.6751 2.2 34.3418C2.7 32.9751 3.23333 32.0751 3.8 31.6418ZM57.7625 42.9918C57.7625 43.5585 56.0792 43.8418 52.7125 43.8418C49.3458 43.8418 47.6625 43.5585 47.6625 42.9918V31.4918H40.6625V42.9918C40.6625 43.5585 38.9792 43.8418 35.6125 43.8418C32.2458 43.8418 30.5625 43.5585 30.5625 42.9918V9.8418C30.5625 9.1418 32.2458 8.7918 35.6125 8.7918C38.9792 8.7918 40.6625 9.1418 40.6625 9.8418V21.5918H47.6625V9.9418C47.6625 9.47513 48.4958 9.1418 50.1625 8.9418C51.0292 8.87513 51.8792 8.84179 52.7125 8.84179L55.2625 8.9418C56.9292 9.1418 57.7625 9.47513 57.7625 9.9418V42.9918ZM79.0902 44.3418C74.4236 44.3418 70.6069 42.8085 67.6402 39.7418C64.7069 36.6751 63.2402 32.2085 63.2402 26.3418C63.2402 20.4418 64.7236 15.9751 67.6902 12.9418C70.6902 9.90846 74.5402 8.39179 79.2402 8.39179C83.9736 8.39179 87.7902 9.89179 90.6902 12.8918C93.5902 15.8585 95.0402 20.3751 95.0402 26.4418C95.0402 32.4751 93.5569 36.9751 90.5902 39.9418C87.6236 42.8751 83.7902 44.3418 79.0902 44.3418ZM79.1402 17.9918C77.5402 17.9918 76.1902 18.7251 75.0902 20.1918C74.0236 21.6585 73.4902 23.7251 73.4902 26.3918C73.4902 29.0251 74.0069 31.0585 75.0402 32.4918C76.0736 33.8918 77.4236 34.5918 79.0902 34.5918C80.7902 34.5918 82.1569 33.8751 83.1902 32.4418C84.2569 31.0085 84.7902 28.9585 84.7902 26.2918C84.7902 23.6251 84.2402 21.5751 83.1402 20.1418C82.0736 18.7085 80.7402 17.9918 79.1402 17.9918ZM104.905 43.9418C101.871 43.9418 100.355 43.6085 100.355 42.9418V10.5418C100.355 9.40846 100.871 8.84179 101.905 8.84179H110.705C115.638 8.84179 119.188 9.85846 121.355 11.8918C123.555 13.9251 124.655 16.8751 124.655 20.7418C124.655 23.9418 123.621 26.8751 121.555 29.5418C120.521 30.8751 119.005 31.9418 117.005 32.7418C115.005 33.5418 112.671 33.9418 110.005 33.9418V42.8918C110.005 43.2918 109.371 43.5751 108.105 43.7418C106.871 43.8751 105.805 43.9418 104.905 43.9418ZM110.005 17.5418V25.4418H110.655C111.821 25.4418 112.805 25.0751 113.605 24.3418C114.405 23.6085 114.805 22.5751 114.805 21.2418C114.805 19.9085 114.521 18.9585 113.955 18.3918C113.421 17.8251 112.455 17.5418 111.055 17.5418H110.005ZM157.97 42.7418C157.97 43.4418 156.404 43.7918 153.27 43.7918C150.137 43.7918 148.437 43.5418 148.17 43.0418L139.82 27.4418V42.9918C139.82 43.5918 138.27 43.8918 135.17 43.8918C132.104 43.8918 130.57 43.5918 130.57 42.9918V9.54179C130.57 9.04179 131.887 8.7918 134.52 8.7918C135.554 8.7918 136.754 8.89179 138.12 9.09179C139.52 9.25846 140.37 9.59179 140.67 10.0918L148.67 25.4918V9.79179C148.67 9.15846 150.22 8.84179 153.32 8.84179C156.42 8.84179 157.97 9.15846 157.97 9.79179V42.7418ZM180.742 22.7418C181.376 22.7418 181.692 23.9085 181.692 26.2418C181.692 26.9418 181.609 27.7751 181.442 28.7418C181.309 29.6751 181.042 30.1418 180.642 30.1418H174.292V35.1418H183.492C184.059 35.1418 184.442 35.8751 184.642 37.3418C184.742 37.9751 184.792 38.6585 184.792 39.3918C184.792 40.0918 184.692 41.0085 184.492 42.1418C184.292 43.2751 183.959 43.8418 183.492 43.8418H166.392C165.126 43.8418 164.492 43.3251 164.492 42.2918V10.1418C164.492 9.27513 164.876 8.84179 165.642 8.84179H183.542C184.242 8.84179 184.592 10.3251 184.592 13.2918C184.592 16.2251 184.242 17.6918 183.542 17.6918H174.292V22.7418H180.742ZM209.2 10.1918C209.6 9.1918 211.684 8.6918 215.45 8.6918C216.417 8.6918 217.6 8.77513 219 8.9418C220.434 9.07513 221.15 9.20846 221.15 9.34179L212.65 26.6418L221.45 43.1918C221.55 43.3585 220.834 43.5251 219.3 43.6918C217.767 43.8251 216.467 43.8918 215.4 43.8918C211.167 43.8918 208.85 43.3251 208.45 42.1918L204.7 32.6418L201.3 42.4918C200.967 43.4251 198.834 43.8918 194.9 43.8918C193.934 43.8918 192.734 43.8251 191.3 43.6918C189.867 43.5585 189.217 43.3751 189.35 43.1418L197.15 25.8418L189.05 9.34179C188.95 9.17513 189.634 9.02513 191.1 8.89179C192.6 8.72513 193.867 8.64179 194.9 8.64179C199.1 8.64179 201.4 9.24179 201.8 10.4418L205.25 18.8418L209.2 10.1918Z" fill="url(#paint0_linear_5941_6124)"/>
    <path d="M3.8 31.6418L6.35173 28.4096L3.84027 26.4269L1.29849 28.3706L3.8 31.6418ZM7.05 33.6918L5.02368 37.2768L5.0401 37.2861L5.05661 37.2952L7.05 33.6918ZM13.05 32.0418L10.1381 34.9537L10.2014 35.017L10.2673 35.0774L13.05 32.0418ZM10.85 30.6918L9.10216 34.4205H9.10216L10.85 30.6918ZM8.45 29.5418L6.43108 33.131L6.51857 33.1802L6.60835 33.2251L8.45 29.5418ZM6.3 28.1418L3.78918 31.4059L3.85853 31.4592L3.93009 31.5096L6.3 28.1418ZM4.3 26.0918L7.72643 23.8075L7.69913 23.7666L7.67086 23.7263L4.3 26.0918ZM5.55 11.4418L8.34319 14.4678L8.3451 14.466L5.55 11.4418ZM20.8 9.1918L19.7552 13.1751L19.7859 13.1831L19.8167 13.1907L20.8 9.1918ZM23.95 11.1918H28.0681V11.0273L28.0549 10.8634L23.95 11.1918ZM22.85 15.9418L26.6534 17.5206L26.6586 17.5081L26.6637 17.4955L22.85 15.9418ZM21.3 18.8918L19.4127 22.5519L21.5673 23.6629L23.5843 22.3182L21.3 18.8918ZM14.9 20.9918L16.7416 17.3085L16.681 17.2782L16.6193 17.2498L14.9 20.9918ZM16.05 21.5418L14.3085 25.2735H14.3085L16.05 21.5418ZM17.75 22.3918L15.832 26.0359L15.9444 26.0951L16.0601 26.1471L17.75 22.3918ZM19.85 23.5918L17.5302 26.9942L17.618 27.0541L17.7088 27.1094L19.85 23.5918ZM22.3 25.4918L25.1259 22.4964L25.1096 22.481L25.0932 22.4658L22.3 25.4918ZM22 40.8418L25.1105 43.5406H25.1105L22 40.8418ZM12.9 44.3418V48.4599H12.9335L12.967 48.4593L12.9 44.3418ZM7.45 43.8418L6.61011 47.8733L6.61833 47.875L6.62655 47.8767L7.45 43.8418ZM3.25 41.8918L5.83338 38.6848L3.25 41.8918ZM2.2 34.3418L6.05585 35.7877L6.06167 35.7722L6.06736 35.7567L2.2 34.3418ZM1.24827 34.874C2.14819 35.5844 3.46917 36.3982 5.02368 37.2768L9.07632 30.1068C7.56416 29.2521 6.71848 28.6991 6.35173 28.4096L1.24827 34.874ZM5.05661 37.2952C7.06719 38.4075 9.23458 39.1098 11.5 39.1098V30.8737C10.9654 30.8737 10.1661 30.7095 9.04339 30.0884L5.05661 37.2952ZM11.5 39.1098C12.6278 39.1098 14.2289 38.9135 15.6196 37.8462C17.2168 36.6205 17.7681 34.8615 17.7681 33.3418H9.53195C9.53195 33.1751 9.55897 32.8364 9.73848 32.4231C9.92862 31.9853 10.2326 31.5985 10.6054 31.3124C11.2794 30.7951 11.8056 30.8737 11.5 30.8737V39.1098ZM17.7681 33.3418C17.7681 31.5818 17.0024 30.0784 15.8327 29.0062L10.2673 35.0774C10.1197 34.9421 9.91901 34.7099 9.76097 34.3675C9.59937 34.0173 9.53195 33.6586 9.53195 33.3418H17.7681ZM15.9619 29.1299C15.0245 28.1925 13.7324 27.4949 12.5978 26.9631L9.10216 34.4205C9.5431 34.6272 9.84842 34.7929 10.0462 34.9142C10.2644 35.0481 10.252 35.0676 10.1381 34.9537L15.9619 29.1299ZM12.5978 26.9631C11.5386 26.4666 10.7769 26.1011 10.2916 25.8585L6.60835 33.2251C7.1898 33.5158 8.02805 33.917 9.10216 34.4205L12.5978 26.9631ZM10.4689 25.9526C10.1154 25.7537 9.53065 25.3797 8.66991 24.774L3.93009 31.5096C4.86935 32.1705 5.71797 32.7299 6.43108 33.131L10.4689 25.9526ZM8.81082 24.8777C8.19983 24.4077 7.88143 24.04 7.72643 23.8075L0.873573 28.3761C1.6519 29.5436 2.66684 30.5425 3.78918 31.4059L8.81082 24.8777ZM7.67086 23.7263C6.93837 22.6825 6.41805 21.1527 6.41805 18.8418H-1.81805C-1.81805 22.3976 -1.00504 25.7011 0.929141 28.4573L7.67086 23.7263ZM6.41805 18.8418C6.41805 17.0646 7.01604 15.6928 8.34319 14.4678L2.75681 8.41584C-0.249376 11.1908 -1.81805 14.7523 -1.81805 18.8418H6.41805ZM8.3451 14.466C9.65047 13.2595 11.4551 12.5098 14.15 12.5098V4.27374C9.77825 4.27374 5.84953 5.55741 2.7549 8.4176L8.3451 14.466ZM14.15 12.5098C16.2462 12.5098 18.1071 12.7428 19.7552 13.1751L21.8448 5.20849C19.4262 4.57411 16.8538 4.27374 14.15 4.27374V12.5098ZM19.8167 13.1907C20.2049 13.2862 20.4875 13.3755 20.6833 13.4496C20.8857 13.5262 20.9413 13.5662 20.9052 13.5433C20.8754 13.5244 20.654 13.3817 20.4124 13.0571C20.1462 12.6996 19.8972 12.1723 19.8451 11.5202L28.0549 10.8634C27.8755 8.62059 26.3832 7.26544 25.3198 6.59028C24.247 5.90916 22.9798 5.48709 21.7833 5.19287L19.8167 13.1907ZM19.8319 11.1918C19.8319 11.192 19.8319 11.1922 19.8319 11.1924C19.8319 11.1926 19.8319 11.1928 19.8319 11.193C19.8319 11.1932 19.8319 11.1934 19.8319 11.1936C19.8319 11.1937 19.8319 11.1939 19.8319 11.1941C19.8319 11.1943 19.8319 11.1945 19.8319 11.1947C19.8319 11.1949 19.8319 11.1951 19.8319 11.1953C19.8319 11.1955 19.8319 11.1957 19.8319 11.1959C19.8319 11.1961 19.8319 11.1963 19.8319 11.1965C19.8319 11.1967 19.8319 11.1969 19.8319 11.1971C19.8319 11.1973 19.8319 11.1975 19.8319 11.1977C19.8319 11.1978 19.8319 11.198 19.8319 11.1982C19.8319 11.1984 19.8319 11.1986 19.8319 11.1988C19.8319 11.199 19.8319 11.1992 19.8319 11.1994C19.8319 11.1996 19.8319 11.1998 19.8319 11.2C19.8319 11.2002 19.8319 11.2004 19.8319 11.2006C19.8319 11.2008 19.8319 11.201 19.8319 11.2012C19.8319 11.2014 19.8319 11.2016 19.8319 11.2018C19.8319 11.202 19.8319 11.2021 19.8319 11.2023C19.8319 11.2025 19.8319 11.2027 19.8319 11.2029C19.8319 11.2031 19.8319 11.2033 19.8319 11.2035C19.8319 11.2037 19.8319 11.2039 19.8319 11.2041C19.8319 11.2043 19.8319 11.2045 19.8319 11.2047C19.8319 11.2049 19.8319 11.2051 19.8319 11.2053C19.8319 11.2055 19.8319 11.2057 19.8319 11.2059C19.8319 11.2061 19.8319 11.2062 19.8319 11.2064C19.8319 11.2066 19.8319 11.2068 19.8319 11.207C19.8319 11.2072 19.8319 11.2074 19.8319 11.2076C19.8319 11.2078 19.8319 11.208 19.8319 11.2082C19.8319 11.2084 19.8319 11.2086 19.8319 11.2088C19.8319 11.209 19.8319 11.2092 19.8319 11.2094C19.8319 11.2096 19.8319 11.2098 19.8319 11.21C19.8319 11.2102 19.8319 11.2103 19.8319 11.2105C19.8319 11.2107 19.8319 11.2109 19.8319 11.2111C19.8319 11.2113 19.8319 11.2115 19.8319 11.2117C19.8319 11.2119 19.8319 11.2121 19.8319 11.2123C19.8319 11.2125 19.8319 11.2127 19.8319 11.2129C19.8319 11.2131 19.8319 11.2133 19.8319 11.2135C19.8319 11.2137 19.8319 11.2139 19.8319 11.2141C19.8319 11.2143 19.8319 11.2145 19.8319 11.2146C19.8319 11.2148 19.8319 11.215 19.8319 11.2152C19.8319 11.2154 19.8319 11.2156 19.8319 11.2158C19.8319 11.216 19.8319 11.2162 19.8319 11.2164C19.8319 11.2166 19.8319 11.2168 19.8319 11.217C19.8319 11.2172 19.8319 11.2174 19.8319 11.2176C19.8319 11.2178 19.8319 11.218 19.8319 11.2182C19.8319 11.2184 19.8319 11.2186 19.8319 11.2187C19.8319 11.2189 19.8319 11.2191 19.8319 11.2193C19.8319 11.2195 19.8319 11.2197 19.8319 11.2199C19.8319 11.2201 19.8319 11.2203 19.8319 11.2205C19.8319 11.2207 19.8319 11.2209 19.8319 11.2211C19.8319 11.2213 19.8319 11.2215 19.8319 11.2217C19.8319 11.2219 19.8319 11.2221 19.8319 11.2223C19.8319 11.2225 19.8319 11.2227 19.8319 11.2228C19.8319 11.223 19.8319 11.2232 19.8319 11.2234C19.8319 11.2236 19.8319 11.2238 19.8319 11.224C19.8319 11.2242 19.8319 11.2244 19.8319 11.2246C19.8319 11.2248 19.8319 11.225 19.8319 11.2252C19.8319 11.2254 19.8319 11.2256 19.8319 11.2258C19.8319 11.226 19.8319 11.2262 19.8319 11.2264C19.8319 11.2266 19.8319 11.2268 19.8319 11.227C19.8319 11.2271 19.8319 11.2273 19.8319 11.2275C19.8319 11.2277 19.8319 11.2279 19.8319 11.2281C19.8319 11.2283 19.8319 11.2285 19.8319 11.2287C19.8319 11.2289 19.8319 11.2291 19.8319 11.2293C19.8319 11.2295 19.8319 11.2297 19.8319 11.2299C19.8319 11.2301 19.8319 11.2303 19.8319 11.2305C19.8319 11.2307 19.8319 11.2309 19.8319 11.2311C19.8319 11.2312 19.8319 11.2314 19.8319 11.2316C19.8319 11.2318 19.8319 11.232 19.8319 11.2322C19.8319 11.2324 19.8319 11.2326 19.8319 11.2328C19.8319 11.233 19.8319 11.2332 19.8319 11.2334C19.8319 11.2336 19.8319 11.2338 19.8319 11.234C19.8319 11.2342 19.8319 11.2344 19.8319 11.2346C19.8319 11.2348 19.8319 11.235 19.8319 11.2352C19.8319 11.2353 19.8319 11.2355 19.8319 11.2357C19.8319 11.2359 19.8319 11.2361 19.8319 11.2363C19.8319 11.2365 19.8319 11.2367 19.8319 11.2369C19.8319 11.2371 19.8319 11.2373 19.8319 11.2375C19.8319 11.2377 19.8319 11.2379 19.8319 11.2381C19.8319 11.2383 19.8319 11.2385 19.8319 11.2387C19.8319 11.2389 19.8319 11.2391 19.8319 11.2393C19.8319 11.2395 19.8319 11.2396 19.8319 11.2398C19.8319 11.24 19.8319 11.2402 19.8319 11.2404C19.8319 11.2406 19.8319 11.2408 19.8319 11.241C19.8319 11.2412 19.8319 11.2414 19.8319 11.2416C19.8319 11.2418 19.8319 11.242 19.8319 11.2422C19.8319 11.2424 19.8319 11.2426 19.8319 11.2428C19.8319 11.243 19.8319 11.2432 19.8319 11.2434C19.8319 11.2436 19.8319 11.2437 19.8319 11.2439C19.8319 11.2441 19.8319 11.2443 19.8319 11.2445C19.8319 11.2447 19.8319 11.2449 19.8319 11.2451C19.8319 11.2453 19.8319 11.2455 19.8319 11.2457C19.8319 11.2459 19.8319 11.2461 19.8319 11.2463C19.8319 11.2465 19.8319 11.2467 19.8319 11.2469C19.8319 11.2471 19.8319 11.2473 19.8319 11.2475C19.8319 11.2477 19.8319 11.2478 19.8319 11.248C19.8319 11.2482 19.8319 11.2484 19.8319 11.2486C19.8319 11.2488 19.8319 11.249 19.8319 11.2492C19.8319 11.2494 19.8319 11.2496 19.8319 11.2498C19.8319 11.25 19.8319 11.2502 19.8319 11.2504C19.8319 11.2506 19.8319 11.2508 19.8319 11.251C19.8319 11.2512 19.8319 11.2514 19.8319 11.2516C19.8319 11.2518 19.8319 11.252 19.8319 11.2521C19.8319 11.2523 19.8319 11.2525 19.8319 11.2527C19.8319 11.2529 19.8319 11.2531 19.8319 11.2533C19.8319 11.2535 19.8319 11.2537 19.8319 11.2539C19.8319 11.2541 19.8319 11.2543 19.8319 11.2545C19.8319 11.2547 19.8319 11.2549 19.8319 11.2551C19.8319 11.2553 19.8319 11.2555 19.8319 11.2557C19.8319 11.2559 19.8319 11.2561 19.8319 11.2562C19.8319 11.2564 19.8319 11.2566 19.8319 11.2568C19.8319 11.257 19.8319 11.2572 19.8319 11.2574C19.8319 11.2576 19.8319 11.2578 19.8319 11.258C19.8319 11.2582 19.8319 11.2584 19.8319 11.2586C19.8319 11.2588 19.8319 11.259 19.8319 11.2592C19.8319 11.2594 19.8319 11.2596 19.8319 11.2598C19.8319 11.26 19.8319 11.2602 19.8319 11.2603C19.8319 11.2605 19.8319 11.2607 19.8319 11.2609C19.8319 11.2611 19.8319 11.2613 19.8319 11.2615C19.8319 11.2617 19.8319 11.2619 19.8319 11.2621C19.8319 11.2623 19.8319 11.2625 19.8319 11.2627C19.8319 11.2629 19.8319 11.2631 19.8319 11.2633C19.8319 11.2635 19.8319 11.2637 19.8319 11.2639C19.8319 11.2641 19.8319 11.2643 19.8319 11.2645C19.8319 11.2646 19.8319 11.2648 19.8319 11.265C19.8319 11.2652 19.8319 11.2654 19.8319 11.2656C19.8319 11.2658 19.8319 11.266 19.8319 11.2662C19.8319 11.2664 19.8319 11.2666 19.8319 11.2668C19.8319 11.267 19.8319 11.2672 19.8319 11.2674C19.8319 11.2676 19.8319 11.2678 19.8319 11.268C19.8319 11.2682 19.8319 11.2684 19.8319 11.2686C19.8319 11.2687 19.8319 11.2689 19.8319 11.2691C19.8319 11.2693 19.8319 11.2695 19.8319 11.2697C19.8319 11.2699 19.8319 11.2701 19.8319 11.2703C19.8319 11.2705 19.8319 11.2707 19.8319 11.2709C19.8319 11.2711 19.8319 11.2713 19.8319 11.2715C19.8319 11.2717 19.8319 11.2719 19.8319 11.2721C19.8319 11.2723 19.8319 11.2725 19.8319 11.2727C19.8319 11.2728 19.8319 11.273 19.8319 11.2732C19.8319 11.2734 19.8319 11.2736 19.8319 11.2738C19.8319 11.274 19.8319 11.2742 19.8319 11.2744C19.8319 11.2746 19.8319 11.2748 19.8319 11.275C19.8319 11.2752 19.8319 11.2754 19.8319 11.2756C19.8319 11.2758 19.8319 11.276 19.8319 11.2762C19.8319 11.2764 19.8319 11.2766 19.8319 11.2768C19.8319 11.277 19.8319 11.2771 19.8319 11.2773C19.8319 11.2775 19.8319 11.2777 19.8319 11.2779C19.8319 11.2781 19.8319 11.2783 19.8319 11.2785C19.8319 11.2787 19.8319 11.2789 19.8319 11.2791C19.8319 11.2793 19.8319 11.2795 19.8319 11.2797C19.8319 11.2799 19.8319 11.2801 19.8319 11.2803C19.8319 11.2805 19.8319 11.2807 19.8319 11.2809C19.8319 11.2811 19.8319 11.2812 19.8319 11.2814C19.8319 11.2816 19.8319 11.2818 19.8319 11.282C19.8319 11.2822 19.8319 11.2824 19.8319 11.2826C19.8319 11.2828 19.8319 11.283 19.8319 11.2832C19.8319 11.2834 19.8319 11.2836 19.8319 11.2838C19.8319 11.284 19.8319 11.2842 19.8319 11.2844C19.8319 11.2846 19.8319 11.2848 19.8319 11.285C19.8319 11.2852 19.8319 11.2853 19.8319 11.2855C19.8319 11.2857 19.8319 11.2859 19.8319 11.2861C19.8319 11.2863 19.8319 11.2865 19.8319 11.2867C19.8319 11.2869 19.8319 11.2871 19.8319 11.2873C19.8319 11.2875 19.8319 11.2877 19.8319 11.2879C19.8319 11.2881 19.8319 11.2883 19.8319 11.2885C19.8319 11.2887 19.8319 11.2889 19.8319 11.2891C19.8319 11.2893 19.8319 11.2895 19.8319 11.2896C19.8319 11.2898 19.8319 11.29 19.8319 11.2902C19.8319 11.2904 19.8319 11.2906 19.8319 11.2908C19.8319 11.291 19.8319 11.2912 19.8319 11.2914C19.8319 11.2916 19.8319 11.2918 19.8319 11.292C19.8319 11.2922 19.8319 11.2924 19.8319 11.2926C19.8319 11.2928 19.8319 11.293 19.8319 11.2932C19.8319 11.2934 19.8319 11.2936 19.8319 11.2937C19.8319 11.2939 19.8319 11.2941 19.8319 11.2943C19.8319 11.2945 19.8319 11.2947 19.8319 11.2949C19.8319 11.2951 19.8319 11.2953 19.8319 11.2955C19.8319 11.2957 19.8319 11.2959 19.8319 11.2961C19.8319 11.2963 19.8319 11.2965 19.8319 11.2967C19.8319 11.2969 19.8319 11.2971 19.8319 11.2973C19.8319 11.2975 19.8319 11.2977 19.8319 11.2978C19.8319 11.298 19.8319 11.2982 19.8319 11.2984C19.8319 11.2986 19.8319 11.2988 19.8319 11.299C19.8319 11.2992 19.8319 11.2994 19.8319 11.2996C19.8319 11.2998 19.8319 11.3 19.8319 11.3002C19.8319 11.3004 19.8319 11.3006 19.8319 11.3008C19.8319 11.301 19.8319 11.3012 19.8319 11.3014C19.8319 11.3016 19.8319 11.3018 19.8319 11.302C19.8319 11.3021 19.8319 11.3023 19.8319 11.3025C19.8319 11.3027 19.8319 11.3029 19.8319 11.3031C19.8319 11.3033 19.8319 11.3035 19.8319 11.3037C19.8319 11.3039 19.8319 11.3041 19.8319 11.3043C19.8319 11.3045 19.8319 11.3047 19.8319 11.3049C19.8319 11.3051 19.8319 11.3053 19.8319 11.3055C19.8319 11.3057 19.8319 11.3059 19.8319 11.3061C19.8319 11.3062 19.8319 11.3064 19.8319 11.3066C19.8319 11.3068 19.8319 11.307 19.8319 11.3072C19.8319 11.3074 19.8319 11.3076 19.8319 11.3078C19.8319 11.308 19.8319 11.3082 19.8319 11.3084C19.8319 11.3086 19.8319 11.3088 19.8319 11.309C19.8319 11.3092 19.8319 11.3094 19.8319 11.3096C19.8319 11.3098 19.8319 11.31 19.8319 11.3102C19.8319 11.3103 19.8319 11.3105 19.8319 11.3107C19.8319 11.3109 19.8319 11.3111 19.8319 11.3113C19.8319 11.3115 19.8319 11.3117 19.8319 11.3119C19.8319 11.3121 19.8319 11.3123 19.8319 11.3125C19.8319 11.3127 19.8319 11.3129 19.8319 11.3131C19.8319 11.3133 19.8319 11.3135 19.8319 11.3137C19.8319 11.3139 19.8319 11.3141 19.8319 11.3143C19.8319 11.3145 19.8319 11.3146 19.8319 11.3148C19.8319 11.315 19.8319 11.3152 19.8319 11.3154C19.8319 11.3156 19.8319 11.3158 19.8319 11.316C19.8319 11.3162 19.8319 11.3164 19.8319 11.3166C19.8319 11.3168 19.8319 11.317 19.8319 11.3172C19.8319 11.3174 19.8319 11.3176 19.8319 11.3178C19.8319 11.318 19.8319 11.3182 19.8319 11.3184C19.8319 11.3186 19.8319 11.3187 19.8319 11.3189C19.8319 11.3191 19.8319 11.3193 19.8319 11.3195C19.8319 11.3197 19.8319 11.3199 19.8319 11.3201C19.8319 11.3203 19.8319 11.3205 19.8319 11.3207C19.8319 11.3209 19.8319 11.3211 19.8319 11.3213C19.8319 11.3215 19.8319 11.3217 19.8319 11.3219C19.8319 11.3221 19.8319 11.3223 19.8319 11.3225C19.8319 11.3227 19.8319 11.3228 19.8319 11.323C19.8319 11.3232 19.8319 11.3234 19.8319 11.3236C19.8319 11.3238 19.8319 11.324 19.8319 11.3242C19.8319 11.3244 19.8319 11.3246 19.8319 11.3248C19.8319 11.325 19.8319 11.3252 19.8319 11.3254C19.8319 11.3256 19.8319 11.3258 19.8319 11.326C19.8319 11.3262 19.8319 11.3264 19.8319 11.3266C19.8319 11.3268 19.8319 11.327 19.8319 11.3271C19.8319 11.3273 19.8319 11.3275 19.8319 11.3277C19.8319 11.3279 19.8319 11.3281 19.8319 11.3283C19.8319 11.3285 19.8319 11.3287 19.8319 11.3289C19.8319 11.3291 19.8319 11.3293 19.8319 11.3295C19.8319 11.3297 19.8319 11.3299 19.8319 11.3301C19.8319 11.3303 19.8319 11.3305 19.8319 11.3307C19.8319 11.3309 19.8319 11.3311 19.8319 11.3312C19.8319 11.3314 19.8319 11.3316 19.8319 11.3318C19.8319 11.332 19.8319 11.3322 19.8319 11.3324C19.8319 11.3326 19.8319 11.3328 19.8319 11.333C19.8319 11.3332 19.8319 11.3334 19.8319 11.3336C19.8319 11.3338 19.8319 11.334 19.8319 11.3342C19.8319 11.3344 19.8319 11.3346 19.8319 11.3348C19.8319 11.335 19.8319 11.3352 19.8319 11.3354C19.8319 11.3355 19.8319 11.3357 19.8319 11.3359C19.8319 11.3361 19.8319 11.3363 19.8319 11.3365C19.8319 11.3367 19.8319 11.3369 19.8319 11.3371C19.8319 11.3373 19.8319 11.3375 19.8319 11.3377C19.8319 11.3379 19.8319 11.3381 19.8319 11.3383C19.8319 11.3385 19.8319 11.3387 19.8319 11.3389C19.8319 11.3391 19.8319 11.3393 19.8319 11.3395C19.8319 11.3396 19.8319 11.3398 19.8319 11.34C19.8319 11.3402 19.8319 11.3404 19.8319 11.3406C19.8319 11.3408 19.8319 11.341 19.8319 11.3412C19.8319 11.3414 19.8319 11.3416 19.8319 11.3418C19.8319 11.342 19.8319 11.3422 19.8319 11.3424C19.8319 11.3426 19.8319 11.3428 19.8319 11.343C19.8319 11.3432 19.8319 11.3434 19.8319 11.3436C19.8319 11.3437 19.8319 11.3439 19.8319 11.3441C19.8319 11.3443 19.8319 11.3445 19.8319 11.3447C19.8319 11.3449 19.8319 11.3451 19.8319 11.3453C19.8319 11.3455 19.8319 11.3457 19.8319 11.3459C19.8319 11.3461 19.8319 11.3463 19.8319 11.3465C19.8319 11.3467 19.8319 11.3469 19.8319 11.3471C19.8319 11.3473 19.8319 11.3475 19.8319 11.3477C19.8319 11.3478 19.8319 11.348 19.8319 11.3482C19.8319 11.3484 19.8319 11.3486 19.8319 11.3488C19.8319 11.349 19.8319 11.3492 19.8319 11.3494C19.8319 11.3496 19.8319 11.3498 19.8319 11.35C19.8319 11.3502 19.8319 11.3504 19.8319 11.3506C19.8319 11.3508 19.8319 11.351 19.8319 11.3512C19.8319 11.3514 19.8319 11.3516 19.8319 11.3518C19.8319 11.352 19.8319 11.3521 19.8319 11.3523C19.8319 11.3525 19.8319 11.3527 19.8319 11.3529C19.8319 11.3531 19.8319 11.3533 19.8319 11.3535C19.8319 11.3537 19.8319 11.3539 19.8319 11.3541C19.8319 11.3543 19.8319 11.3545 19.8319 11.3547C19.8319 11.3549 19.8319 11.3551 19.8319 11.3553C19.8319 11.3555 19.8319 11.3557 19.8319 11.3559C19.8319 11.3561 19.8319 11.3562 19.8319 11.3564C19.8319 11.3566 19.8319 11.3568 19.8319 11.357C19.8319 11.3572 19.8319 11.3574 19.8319 11.3576C19.8319 11.3578 19.8319 11.358 19.8319 11.3582C19.8319 11.3584 19.8319 11.3586 19.8319 11.3588C19.8319 11.359 19.8319 11.3592 19.8319 11.3594C19.8319 11.3596 19.8319 11.3598 19.8319 11.36C19.8319 11.3602 19.8319 11.3603 19.8319 11.3605C19.8319 11.3607 19.8319 11.3609 19.8319 11.3611C19.8319 11.3613 19.8319 11.3615 19.8319 11.3617C19.8319 11.3619 19.8319 11.3621 19.8319 11.3623C19.8319 11.3625 19.8319 11.3627 19.8319 11.3629C19.8319 11.3631 19.8319 11.3633 19.8319 11.3635C19.8319 11.3637 19.8319 11.3639 19.8319 11.3641C19.8319 11.3643 19.8319 11.3645 19.8319 11.3646C19.8319 11.3648 19.8319 11.365 19.8319 11.3652C19.8319 11.3654 19.8319 11.3656 19.8319 11.3658C19.8319 11.366 19.8319 11.3662 19.8319 11.3664C19.8319 11.3666 19.8319 11.3668 19.8319 11.367C19.8319 11.3672 19.8319 11.3674 19.8319 11.3676C19.8319 11.3678 19.8319 11.368 19.8319 11.3682C19.8319 11.3684 19.8319 11.3686 19.8319 11.3687C19.8319 11.3689 19.8319 11.3691 19.8319 11.3693C19.8319 11.3695 19.8319 11.3697 19.8319 11.3699C19.8319 11.3701 19.8319 11.3703 19.8319 11.3705C19.8319 11.3707 19.8319 11.3709 19.8319 11.3711C19.8319 11.3713 19.8319 11.3715 19.8319 11.3717C19.8319 11.3719 19.8319 11.3721 19.8319 11.3723C19.8319 11.3725 19.8319 11.3727 19.8319 11.3729C19.8319 11.373 19.8319 11.3732 19.8319 11.3734C19.8319 11.3736 19.8319 11.3738 19.8319 11.374C19.8319 11.3742 19.8319 11.3744 19.8319 11.3746C19.8319 11.3748 19.8319 11.375 19.8319 11.3752C19.8319 11.3754 19.8319 11.3756 19.8319 11.3758C19.8319 11.376 19.8319 11.3762 19.8319 11.3764C19.8319 11.3766 19.8319 11.3768 19.8319 11.377C19.8319 11.3771 19.8319 11.3773 19.8319 11.3775C19.8319 11.3777 19.8319 11.3779 19.8319 11.3781C19.8319 11.3783 19.8319 11.3785 19.8319 11.3787C19.8319 11.3789 19.8319 11.3791 19.8319 11.3793C19.8319 11.3795 19.8319 11.3797 19.8319 11.3799C19.8319 11.3801 19.8319 11.3803 19.8319 11.3805C19.8319 11.3807 19.8319 11.3809 19.8319 11.3811C19.8319 11.3812 19.8319 11.3814 19.8319 11.3816C19.8319 11.3818 19.8319 11.382 19.8319 11.3822C19.8319 11.3824 19.8319 11.3826 19.8319 11.3828C19.8319 11.383 19.8319 11.3832 19.8319 11.3834C19.8319 11.3836 19.8319 11.3838 19.8319 11.384C19.8319 11.3842 19.8319 11.3844 19.8319 11.3846C19.8319 11.3848 19.8319 11.385 19.8319 11.3852C19.8319 11.3854 19.8319 11.3855 19.8319 11.3857C19.8319 11.3859 19.8319 11.3861 19.8319 11.3863C19.8319 11.3865 19.8319 11.3867 19.8319 11.3869C19.8319 11.3871 19.8319 11.3873 19.8319 11.3875C19.8319 11.3877 19.8319 11.3879 19.8319 11.3881C19.8319 11.3883 19.8319 11.3885 19.8319 11.3887C19.8319 11.3889 19.8319 11.3891 19.8319 11.3893C19.8319 11.3895 19.8319 11.3896 19.8319 11.3898C19.8319 11.39 19.8319 11.3902 19.8319 11.3904C19.8319 11.3906 19.8319 11.3908 19.8319 11.391C19.8319 11.3912 19.8319 11.3914 19.8319 11.3916C19.8319 11.3918 19.8319 11.392 19.8319 11.3922C19.8319 11.3924 19.8319 11.3926 19.8319 11.3928C19.8319 11.393 19.8319 11.3932 19.8319 11.3934C19.8319 11.3936 19.8319 11.3937 19.8319 11.3939C19.8319 11.3941 19.8319 11.3943 19.8319 11.3945C19.8319 11.3947 19.8319 11.3949 19.8319 11.3951C19.8319 11.3953 19.8319 11.3955 19.8319 11.3957C19.8319 11.3959 19.8319 11.3961 19.8319 11.3963C19.8319 11.3965 19.8319 11.3967 19.8319 11.3969C19.8319 11.3971 19.8319 11.3973 19.8319 11.3975C19.8319 11.3977 19.8319 11.3979 19.8319 11.398C19.8319 11.3982 19.8319 11.3984 19.8319 11.3986C19.8319 11.3988 19.8319 11.399 19.8319 11.3992C19.8319 11.3994 19.8319 11.3996 19.8319 11.3998C19.8319 11.4 19.8319 11.4002 19.8319 11.4004C19.8319 11.4006 19.8319 11.4008 19.8319 11.401C19.8319 11.4012 19.8319 11.4014 19.8319 11.4016C19.8319 11.4018 19.8319 11.402 19.8319 11.4021C19.8319 11.4023 19.8319 11.4025 19.8319 11.4027C19.8319 11.4029 19.8319 11.4031 19.8319 11.4033C19.8319 11.4035 19.8319 11.4037 19.8319 11.4039C19.8319 11.4041 19.8319 11.4043 19.8319 11.4045C19.8319 11.4047 19.8319 11.4049 19.8319 11.4051C19.8319 11.4053 19.8319 11.4055 19.8319 11.4057C19.8319 11.4059 19.8319 11.4061 19.8319 11.4062C19.8319 11.4064 19.8319 11.4066 19.8319 11.4068C19.8319 11.407 19.8319 11.4072 19.8319 11.4074C19.8319 11.4076 19.8319 11.4078 19.8319 11.408C19.8319 11.4082 19.8319 11.4084 19.8319 11.4086C19.8319 11.4088 19.8319 11.409 19.8319 11.4092C19.8319 11.4094 19.8319 11.4096 19.8319 11.4098C19.8319 11.41 19.8319 11.4102 19.8319 11.4103C19.8319 11.4105 19.8319 11.4107 19.8319 11.4109C19.8319 11.4111 19.8319 11.4113 19.8319 11.4115C19.8319 11.4117 19.8319 11.4119 19.8319 11.4121C19.8319 11.4123 19.8319 11.4125 19.8319 11.4127C19.8319 11.4129 19.8319 11.4131 19.8319 11.4133C19.8319 11.4135 19.8319 11.4137 19.8319 11.4139C19.8319 11.4141 19.8319 11.4143 19.8319 11.4145C19.8319 11.4146 19.8319 11.4148 19.8319 11.415C19.8319 11.4152 19.8319 11.4154 19.8319 11.4156C19.8319 11.4158 19.8319 11.416 19.8319 11.4162C19.8319 11.4164 19.8319 11.4166 19.8319 11.4168C19.8319 11.417 19.8319 11.4172 19.8319 11.4174C19.8319 11.4176 19.8319 11.4178 19.8319 11.418C19.8319 11.4182 19.8319 11.4184 19.8319 11.4186C19.8319 11.4187 19.8319 11.4189 19.8319 11.4191C19.8319 11.4193 19.8319 11.4195 19.8319 11.4197C19.8319 11.4199 19.8319 11.4201 19.8319 11.4203C19.8319 11.4205 19.8319 11.4207 19.8319 11.4209C19.8319 11.4211 19.8319 11.4213 19.8319 11.4215C19.8319 11.4217 19.8319 11.4219 19.8319 11.4221C19.8319 11.4223 19.8319 11.4225 19.8319 11.4227C19.8319 11.4229 19.8319 11.423 19.8319 11.4232C19.8319 11.4234 19.8319 11.4236 19.8319 11.4238C19.8319 11.424 19.8319 11.4242 19.8319 11.4244C19.8319 11.4246 19.8319 11.4248 19.8319 11.425C19.8319 11.4252 19.8319 11.4254 19.8319 11.4256C19.8319 11.4258 19.8319 11.426 19.8319 11.4262C19.8319 11.4264 19.8319 11.4266 19.8319 11.4268C19.8319 11.427 19.8319 11.4271 19.8319 11.4273C19.8319 11.4275 19.8319 11.4277 19.8319 11.4279C19.8319 11.4281 19.8319 11.4283 19.8319 11.4285C19.8319 11.4287 19.8319 11.4289 19.8319 11.4291C19.8319 11.4293 19.8319 11.4295 19.8319 11.4297C19.8319 11.4299 19.8319 11.4301 19.8319 11.4303C19.8319 11.4305 19.8319 11.4307 19.8319 11.4309C19.8319 11.4311 19.8319 11.4312 19.8319 11.4314C19.8319 11.4316 19.8319 11.4318 19.8319 11.432C19.8319 11.4322 19.8319 11.4324 19.8319 11.4326C19.8319 11.4328 19.8319 11.433 19.8319 11.4332C19.8319 11.4334 19.8319 11.4336 19.8319 11.4338C19.8319 11.434 19.8319 11.4342 19.8319 11.4344C19.8319 11.4346 19.8319 11.4348 19.8319 11.435C19.8319 11.4352 19.8319 11.4354 19.8319 11.4355C19.8319 11.4357 19.8319 11.4359 19.8319 11.4361C19.8319 11.4363 19.8319 11.4365 19.8319 11.4367C19.8319 11.4369 19.8319 11.4371 19.8319 11.4373C19.8319 11.4375 19.8319 11.4377 19.8319 11.4379C19.8319 11.4381 19.8319 11.4383 19.8319 11.4385C19.8319 11.4387 19.8319 11.4389 19.8319 11.4391C19.8319 11.4393 19.8319 11.4395 19.8319 11.4396C19.8319 11.4398 19.8319 11.44 19.8319 11.4402C19.8319 11.4404 19.8319 11.4406 19.8319 11.4408C19.8319 11.441 19.8319 11.4412 19.8319 11.4414C19.8319 11.4416 19.8319 11.4418 19.8319 11.442C19.8319 11.4422 19.8319 11.4424 19.8319 11.4426C19.8319 11.4428 19.8319 11.443 19.8319 11.4432C19.8319 11.4434 19.8319 11.4436 19.8319 11.4437C19.8319 11.4439 19.8319 11.4441 19.8319 11.4443C19.8319 11.4445 19.8319 11.4447 19.8319 11.4449C19.8319 11.4451 19.8319 11.4453 19.8319 11.4455C19.8319 11.4457 19.8319 11.4459 19.8319 11.4461C19.8319 11.4463 19.8319 11.4465 19.8319 11.4467C19.8319 11.4469 19.8319 11.4471 19.8319 11.4473C19.8319 11.4475 19.8319 11.4477 19.8319 11.4479C19.8319 11.448 19.8319 11.4482 19.8319 11.4484C19.8319 11.4486 19.8319 11.4488 19.8319 11.449C19.8319 11.4492 19.8319 11.4494 19.8319 11.4496C19.8319 11.4498 19.8319 11.45 19.8319 11.4502C19.8319 11.4504 19.8319 11.4506 19.8319 11.4508C19.8319 11.451 19.8319 11.4512 19.8319 11.4514C19.8319 11.4516 19.8319 11.4518 19.8319 11.452C19.8319 11.4521 19.8319 11.4523 19.8319 11.4525C19.8319 11.4527 19.8319 11.4529 19.8319 11.4531C19.8319 11.4533 19.8319 11.4535 19.8319 11.4537C19.8319 11.4539 19.8319 11.4541 19.8319 11.4543C19.8319 11.4545 19.8319 11.4547 19.8319 11.4549C19.8319 11.4551 19.8319 11.4553 19.8319 11.4555C19.8319 11.4557 19.8319 11.4559 19.8319 11.4561C19.8319 11.4562 19.8319 11.4564 19.8319 11.4566C19.8319 11.4568 19.8319 11.457 19.8319 11.4572C19.8319 11.4574 19.8319 11.4576 19.8319 11.4578C19.8319 11.458 19.8319 11.4582 19.8319 11.4584C19.8319 11.4586 19.8319 11.4588 19.8319 11.459C19.8319 11.4592 19.8319 11.4594 19.8319 11.4596C19.8319 11.4598 19.8319 11.46 19.8319 11.4602C19.8319 11.4604 19.8319 11.4605 19.8319 11.4607C19.8319 11.4609 19.8319 11.4611 19.8319 11.4613C19.8319 11.4615 19.8319 11.4617 19.8319 11.4619C19.8319 11.4621 19.8319 11.4623 19.8319 11.4625C19.8319 11.4627 19.8319 11.4629 19.8319 11.4631C19.8319 11.4633 19.8319 11.4635 19.8319 11.4637C19.8319 11.4639 19.8319 11.4641 19.8319 11.4643C19.8319 11.4645 19.8319 11.4646 19.8319 11.4648C19.8319 11.465 19.8319 11.4652 19.8319 11.4654C19.8319 11.4656 19.8319 11.4658 19.8319 11.466C19.8319 11.4662 19.8319 11.4664 19.8319 11.4666C19.8319 11.4668 19.8319 11.467 19.8319 11.4672C19.8319 11.4674 19.8319 11.4676 19.8319 11.4678C19.8319 11.468 19.8319 11.4682 19.8319 11.4684C19.8319 11.4686 19.8319 11.4687 19.8319 11.4689C19.8319 11.4691 19.8319 11.4693 19.8319 11.4695C19.8319 11.4697 19.8319 11.4699 19.8319 11.4701C19.8319 11.4703 19.8319 11.4705 19.8319 11.4707C19.8319 11.4709 19.8319 11.4711 19.8319 11.4713C19.8319 11.4715 19.8319 11.4717 19.8319 11.4719C19.8319 11.4721 19.8319 11.4723 19.8319 11.4725C19.8319 11.4727 19.8319 11.4729 19.8319 11.473C19.8319 11.4732 19.8319 11.4734 19.8319 11.4736C19.8319 11.4738 19.8319 11.474 19.8319 11.4742C19.8319 11.4744 19.8319 11.4746 19.8319 11.4748C19.8319 11.475 19.8319 11.4752 19.8319 11.4754C19.8319 11.4756 19.8319 11.4758 19.8319 11.476C19.8319 11.4762 19.8319 11.4764 19.8319 11.4766C19.8319 11.4768 19.8319 11.477 19.8319 11.4771C19.8319 11.4773 19.8319 11.4775 19.8319 11.4777C19.8319 11.4779 19.8319 11.4781 19.8319 11.4783C19.8319 11.4785 19.8319 11.4787 19.8319 11.4789C19.8319 11.4791 19.8319 11.4793 19.8319 11.4795C19.8319 11.4797 19.8319 11.4799 19.8319 11.4801C19.8319 11.4803 19.8319 11.4805 19.8319 11.4807C19.8319 11.4809 19.8319 11.4811 19.8319 11.4812C19.8319 11.4814 19.8319 11.4816 19.8319 11.4818C19.8319 11.482 19.8319 11.4822 19.8319 11.4824C19.8319 11.4826 19.8319 11.4828 19.8319 11.483C19.8319 11.4832 19.8319 11.4834 19.8319 11.4836C19.8319 11.4838 19.8319 11.484 19.8319 11.4842C19.8319 11.4844 19.8319 11.4846 19.8319 11.4848C19.8319 11.485 19.8319 11.4852 19.8319 11.4854C19.8319 11.4855 19.8319 11.4857 19.8319 11.4859C19.8319 11.4861 19.8319 11.4863 19.8319 11.4865C19.8319 11.4867 19.8319 11.4869 19.8319 11.4871C19.8319 11.4873 19.8319 11.4875 19.8319 11.4877C19.8319 11.4879 19.8319 11.4881 19.8319 11.4883C19.8319 11.4885 19.8319 11.4887 19.8319 11.4889C19.8319 11.4891 19.8319 11.4893 19.8319 11.4895C19.8319 11.4896 19.8319 11.4898 19.8319 11.49C19.8319 11.4902 19.8319 11.4904 19.8319 11.4906C19.8319 11.4908 19.8319 11.491 19.8319 11.4912C19.8319 11.4914 19.8319 11.4916 19.8319 11.4918H28.0681C28.0681 11.4916 28.0681 11.4914 28.0681 11.4912C28.0681 11.491 28.0681 11.4908 28.0681 11.4906C28.0681 11.4904 28.0681 11.4902 28.0681 11.49C28.0681 11.4898 28.0681 11.4896 28.0681 11.4895C28.0681 11.4893 28.0681 11.4891 28.0681 11.4889C28.0681 11.4887 28.0681 11.4885 28.0681 11.4883C28.0681 11.4881 28.0681 11.4879 28.0681 11.4877C28.0681 11.4875 28.0681 11.4873 28.0681 11.4871C28.0681 11.4869 28.0681 11.4867 28.0681 11.4865C28.0681 11.4863 28.0681 11.4861 28.0681 11.4859C28.0681 11.4857 28.0681 11.4855 28.0681 11.4854C28.0681 11.4852 28.0681 11.485 28.0681 11.4848C28.0681 11.4846 28.0681 11.4844 28.0681 11.4842C28.0681 11.484 28.0681 11.4838 28.0681 11.4836C28.0681 11.4834 28.0681 11.4832 28.0681 11.483C28.0681 11.4828 28.0681 11.4826 28.0681 11.4824C28.0681 11.4822 28.0681 11.482 28.0681 11.4818C28.0681 11.4816 28.0681 11.4814 28.0681 11.4812C28.0681 11.4811 28.0681 11.4809 28.0681 11.4807C28.0681 11.4805 28.0681 11.4803 28.0681 11.4801C28.0681 11.4799 28.0681 11.4797 28.0681 11.4795C28.0681 11.4793 28.0681 11.4791 28.0681 11.4789C28.0681 11.4787 28.0681 11.4785 28.0681 11.4783C28.0681 11.4781 28.0681 11.4779 28.0681 11.4777C28.0681 11.4775 28.0681 11.4773 28.0681 11.4771C28.0681 11.477 28.0681 11.4768 28.0681 11.4766C28.0681 11.4764 28.0681 11.4762 28.0681 11.476C28.0681 11.4758 28.0681 11.4756 28.0681 11.4754C28.0681 11.4752 28.0681 11.475 28.0681 11.4748C28.0681 11.4746 28.0681 11.4744 28.0681 11.4742C28.0681 11.474 28.0681 11.4738 28.0681 11.4736C28.0681 11.4734 28.0681 11.4732 28.0681 11.473C28.0681 11.4729 28.0681 11.4727 28.0681 11.4725C28.0681 11.4723 28.0681 11.4721 28.0681 11.4719C28.0681 11.4717 28.0681 11.4715 28.0681 11.4713C28.0681 11.4711 28.0681 11.4709 28.0681 11.4707C28.0681 11.4705 28.0681 11.4703 28.0681 11.4701C28.0681 11.4699 28.0681 11.4697 28.0681 11.4695C28.0681 11.4693 28.0681 11.4691 28.0681 11.4689C28.0681 11.4687 28.0681 11.4686 28.0681 11.4684C28.0681 11.4682 28.0681 11.468 28.0681 11.4678C28.0681 11.4676 28.0681 11.4674 28.0681 11.4672C28.0681 11.467 28.0681 11.4668 28.0681 11.4666C28.0681 11.4664 28.0681 11.4662 28.0681 11.466C28.0681 11.4658 28.0681 11.4656 28.0681 11.4654C28.0681 11.4652 28.0681 11.465 28.0681 11.4648C28.0681 11.4646 28.0681 11.4645 28.0681 11.4643C28.0681 11.4641 28.0681 11.4639 28.0681 11.4637C28.0681 11.4635 28.0681 11.4633 28.0681 11.4631C28.0681 11.4629 28.0681 11.4627 28.0681 11.4625C28.0681 11.4623 28.0681 11.4621 28.0681 11.4619C28.0681 11.4617 28.0681 11.4615 28.0681 11.4613C28.0681 11.4611 28.0681 11.4609 28.0681 11.4607C28.0681 11.4605 28.0681 11.4604 28.0681 11.4602C28.0681 11.46 28.0681 11.4598 28.0681 11.4596C28.0681 11.4594 28.0681 11.4592 28.0681 11.459C28.0681 11.4588 28.0681 11.4586 28.0681 11.4584C28.0681 11.4582 28.0681 11.458 28.0681 11.4578C28.0681 11.4576 28.0681 11.4574 28.0681 11.4572C28.0681 11.457 28.0681 11.4568 28.0681 11.4566C28.0681 11.4564 28.0681 11.4562 28.0681 11.4561C28.0681 11.4559 28.0681 11.4557 28.0681 11.4555C28.0681 11.4553 28.0681 11.4551 28.0681 11.4549C28.0681 11.4547 28.0681 11.4545 28.0681 11.4543C28.0681 11.4541 28.0681 11.4539 28.0681 11.4537C28.0681 11.4535 28.0681 11.4533 28.0681 11.4531C28.0681 11.4529 28.0681 11.4527 28.0681 11.4525C28.0681 11.4523 28.0681 11.4521 28.0681 11.452C28.0681 11.4518 28.0681 11.4516 28.0681 11.4514C28.0681 11.4512 28.0681 11.451 28.0681 11.4508C28.0681 11.4506 28.0681 11.4504 28.0681 11.4502C28.0681 11.45 28.0681 11.4498 28.0681 11.4496C28.0681 11.4494 28.0681 11.4492 28.0681 11.449C28.0681 11.4488 28.0681 11.4486 28.0681 11.4484C28.0681 11.4482 28.0681 11.448 28.0681 11.4479C28.0681 11.4477 28.0681 11.4475 28.0681 11.4473C28.0681 11.4471 28.0681 11.4469 28.0681 11.4467C28.0681 11.4465 28.0681 11.4463 28.0681 11.4461C28.0681 11.4459 28.0681 11.4457 28.0681 11.4455C28.0681 11.4453 28.0681 11.4451 28.0681 11.4449C28.0681 11.4447 28.0681 11.4445 28.0681 11.4443C28.0681 11.4441 28.0681 11.4439 28.0681 11.4437C28.0681 11.4436 28.0681 11.4434 28.0681 11.4432C28.0681 11.443 28.0681 11.4428 28.0681 11.4426C28.0681 11.4424 28.0681 11.4422 28.0681 11.442C28.0681 11.4418 28.0681 11.4416 28.0681 11.4414C28.0681 11.4412 28.0681 11.441 28.0681 11.4408C28.0681 11.4406 28.0681 11.4404 28.0681 11.4402C28.0681 11.44 28.0681 11.4398 28.0681 11.4396C28.0681 11.4395 28.0681 11.4393 28.0681 11.4391C28.0681 11.4389 28.0681 11.4387 28.0681 11.4385C28.0681 11.4383 28.0681 11.4381 28.0681 11.4379C28.0681 11.4377 28.0681 11.4375 28.0681 11.4373C28.0681 11.4371 28.0681 11.4369 28.0681 11.4367C28.0681 11.4365 28.0681 11.4363 28.0681 11.4361C28.0681 11.4359 28.0681 11.4357 28.0681 11.4355C28.0681 11.4354 28.0681 11.4352 28.0681 11.435C28.0681 11.4348 28.0681 11.4346 28.0681 11.4344C28.0681 11.4342 28.0681 11.434 28.0681 11.4338C28.0681 11.4336 28.0681 11.4334 28.0681 11.4332C28.0681 11.433 28.0681 11.4328 28.0681 11.4326C28.0681 11.4324 28.0681 11.4322 28.0681 11.432C28.0681 11.4318 28.0681 11.4316 28.0681 11.4314C28.0681 11.4312 28.0681 11.4311 28.0681 11.4309C28.0681 11.4307 28.0681 11.4305 28.0681 11.4303C28.0681 11.4301 28.0681 11.4299 28.0681 11.4297C28.0681 11.4295 28.0681 11.4293 28.0681 11.4291C28.0681 11.4289 28.0681 11.4287 28.0681 11.4285C28.0681 11.4283 28.0681 11.4281 28.0681 11.4279C28.0681 11.4277 28.0681 11.4275 28.0681 11.4273C28.0681 11.4271 28.0681 11.427 28.0681 11.4268C28.0681 11.4266 28.0681 11.4264 28.0681 11.4262C28.0681 11.426 28.0681 11.4258 28.0681 11.4256C28.0681 11.4254 28.0681 11.4252 28.0681 11.425C28.0681 11.4248 28.0681 11.4246 28.0681 11.4244C28.0681 11.4242 28.0681 11.424 28.0681 11.4238C28.0681 11.4236 28.0681 11.4234 28.0681 11.4232C28.0681 11.423 28.0681 11.4229 28.0681 11.4227C28.0681 11.4225 28.0681 11.4223 28.0681 11.4221C28.0681 11.4219 28.0681 11.4217 28.0681 11.4215C28.0681 11.4213 28.0681 11.4211 28.0681 11.4209C28.0681 11.4207 28.0681 11.4205 28.0681 11.4203C28.0681 11.4201 28.0681 11.4199 28.0681 11.4197C28.0681 11.4195 28.0681 11.4193 28.0681 11.4191C28.0681 11.4189 28.0681 11.4187 28.0681 11.4186C28.0681 11.4184 28.0681 11.4182 28.0681 11.418C28.0681 11.4178 28.0681 11.4176 28.0681 11.4174C28.0681 11.4172 28.0681 11.417 28.0681 11.4168C28.0681 11.4166 28.0681 11.4164 28.0681 11.4162C28.0681 11.416 28.0681 11.4158 28.0681 11.4156C28.0681 11.4154 28.0681 11.4152 28.0681 11.415C28.0681 11.4148 28.0681 11.4146 28.0681 11.4145C28.0681 11.4143 28.0681 11.4141 28.0681 11.4139C28.0681 11.4137 28.0681 11.4135 28.0681 11.4133C28.0681 11.4131 28.0681 11.4129 28.0681 11.4127C28.0681 11.4125 28.0681 11.4123 28.0681 11.4121C28.0681 11.4119 28.0681 11.4117 28.0681 11.4115C28.0681 11.4113 28.0681 11.4111 28.0681 11.4109C28.0681 11.4107 28.0681 11.4105 28.0681 11.4103C28.0681 11.4102 28.0681 11.41 28.0681 11.4098C28.0681 11.4096 28.0681 11.4094 28.0681 11.4092C28.0681 11.409 28.0681 11.4088 28.0681 11.4086C28.0681 11.4084 28.0681 11.4082 28.0681 11.408C28.0681 11.4078 28.0681 11.4076 28.0681 11.4074C28.0681 11.4072 28.0681 11.407 28.0681 11.4068C28.0681 11.4066 28.0681 11.4064 28.0681 11.4062C28.0681 11.4061 28.0681 11.4059 28.0681 11.4057C28.0681 11.4055 28.0681 11.4053 28.0681 11.4051C28.0681 11.4049 28.0681 11.4047 28.0681 11.4045C28.0681 11.4043 28.0681 11.4041 28.0681 11.4039C28.0681 11.4037 28.0681 11.4035 28.0681 11.4033C28.0681 11.4031 28.0681 11.4029 28.0681 11.4027C28.0681 11.4025 28.0681 11.4023 28.0681 11.4021C28.0681 11.402 28.0681 11.4018 28.0681 11.4016C28.0681 11.4014 28.0681 11.4012 28.0681 11.401C28.0681 11.4008 28.0681 11.4006 28.0681 11.4004C28.0681 11.4002 28.0681 11.4 28.0681 11.3998C28.0681 11.3996 28.0681 11.3994 28.0681 11.3992C28.0681 11.399 28.0681 11.3988 28.0681 11.3986C28.0681 11.3984 28.0681 11.3982 28.0681 11.398C28.0681 11.3979 28.0681 11.3977 28.0681 11.3975C28.0681 11.3973 28.0681 11.3971 28.0681 11.3969C28.0681 11.3967 28.0681 11.3965 28.0681 11.3963C28.0681 11.3961 28.0681 11.3959 28.0681 11.3957C28.0681 11.3955 28.0681 11.3953 28.0681 11.3951C28.0681 11.3949 28.0681 11.3947 28.0681 11.3945C28.0681 11.3943 28.0681 11.3941 28.0681 11.3939C28.0681 11.3937 28.0681 11.3936 28.0681 11.3934C28.0681 11.3932 28.0681 11.393 28.0681 11.3928C28.0681 11.3926 28.0681 11.3924 28.0681 11.3922C28.0681 11.392 28.0681 11.3918 28.0681 11.3916C28.0681 11.3914 28.0681 11.3912 28.0681 11.391C28.0681 11.3908 28.0681 11.3906 28.0681 11.3904C28.0681 11.3902 28.0681 11.39 28.0681 11.3898C28.0681 11.3896 28.0681 11.3895 28.0681 11.3893C28.0681 11.3891 28.0681 11.3889 28.0681 11.3887C28.0681 11.3885 28.0681 11.3883 28.0681 11.3881C28.0681 11.3879 28.0681 11.3877 28.0681 11.3875C28.0681 11.3873 28.0681 11.3871 28.0681 11.3869C28.0681 11.3867 28.0681 11.3865 28.0681 11.3863C28.0681 11.3861 28.0681 11.3859 28.0681 11.3857C28.0681 11.3855 28.0681 11.3854 28.0681 11.3852C28.0681 11.385 28.0681 11.3848 28.0681 11.3846C28.0681 11.3844 28.0681 11.3842 28.0681 11.384C28.0681 11.3838 28.0681 11.3836 28.0681 11.3834C28.0681 11.3832 28.0681 11.383 28.0681 11.3828C28.0681 11.3826 28.0681 11.3824 28.0681 11.3822C28.0681 11.382 28.0681 11.3818 28.0681 11.3816C28.0681 11.3814 28.0681 11.3812 28.0681 11.3811C28.0681 11.3809 28.0681 11.3807 28.0681 11.3805C28.0681 11.3803 28.0681 11.3801 28.0681 11.3799C28.0681 11.3797 28.0681 11.3795 28.0681 11.3793C28.0681 11.3791 28.0681 11.3789 28.0681 11.3787C28.0681 11.3785 28.0681 11.3783 28.0681 11.3781C28.0681 11.3779 28.0681 11.3777 28.0681 11.3775C28.0681 11.3773 28.0681 11.3771 28.0681 11.377C28.0681 11.3768 28.0681 11.3766 28.0681 11.3764C28.0681 11.3762 28.0681 11.376 28.0681 11.3758C28.0681 11.3756 28.0681 11.3754 28.0681 11.3752C28.0681 11.375 28.0681 11.3748 28.0681 11.3746C28.0681 11.3744 28.0681 11.3742 28.0681 11.374C28.0681 11.3738 28.0681 11.3736 28.0681 11.3734C28.0681 11.3732 28.0681 11.373 28.0681 11.3729C28.0681 11.3727 28.0681 11.3725 28.0681 11.3723C28.0681 11.3721 28.0681 11.3719 28.0681 11.3717C28.0681 11.3715 28.0681 11.3713 28.0681 11.3711C28.0681 11.3709 28.0681 11.3707 28.0681 11.3705C28.0681 11.3703 28.0681 11.3701 28.0681 11.3699C28.0681 11.3697 28.0681 11.3695 28.0681 11.3693C28.0681 11.3691 28.0681 11.3689 28.0681 11.3687C28.0681 11.3686 28.0681 11.3684 28.0681 11.3682C28.0681 11.368 28.0681 11.3678 28.0681 11.3676C28.0681 11.3674 28.0681 11.3672 28.0681 11.367C28.0681 11.3668 28.0681 11.3666 28.0681 11.3664C28.0681 11.3662 28.0681 11.366 28.0681 11.3658C28.0681 11.3656 28.0681 11.3654 28.0681 11.3652C28.0681 11.365 28.0681 11.3648 28.0681 11.3646C28.0681 11.3645 28.0681 11.3643 28.0681 11.3641C28.0681 11.3639 28.0681 11.3637 28.0681 11.3635C28.0681 11.3633 28.0681 11.3631 28.0681 11.3629C28.0681 11.3627 28.0681 11.3625 28.0681 11.3623C28.0681 11.3621 28.0681 11.3619 28.0681 11.3617C28.0681 11.3615 28.0681 11.3613 28.0681 11.3611C28.0681 11.3609 28.0681 11.3607 28.0681 11.3605C28.0681 11.3603 28.0681 11.3602 28.0681 11.36C28.0681 11.3598 28.0681 11.3596 28.0681 11.3594C28.0681 11.3592 28.0681 11.359 28.0681 11.3588C28.0681 11.3586 28.0681 11.3584 28.0681 11.3582C28.0681 11.358 28.0681 11.3578 28.0681 11.3576C28.0681 11.3574 28.0681 11.3572 28.0681 11.357C28.0681 11.3568 28.0681 11.3566 28.0681 11.3564C28.0681 11.3562 28.0681 11.3561 28.0681 11.3559C28.0681 11.3557 28.0681 11.3555 28.0681 11.3553C28.0681 11.3551 28.0681 11.3549 28.0681 11.3547C28.0681 11.3545 28.0681 11.3543 28.0681 11.3541C28.0681 11.3539 28.0681 11.3537 28.0681 11.3535C28.0681 11.3533 28.0681 11.3531 28.0681 11.3529C28.0681 11.3527 28.0681 11.3525 28.0681 11.3523C28.0681 11.3521 28.0681 11.352 28.0681 11.3518C28.0681 11.3516 28.0681 11.3514 28.0681 11.3512C28.0681 11.351 28.0681 11.3508 28.0681 11.3506C28.0681 11.3504 28.0681 11.3502 28.0681 11.35C28.0681 11.3498 28.0681 11.3496 28.0681 11.3494C28.0681 11.3492 28.0681 11.349 28.0681 11.3488C28.0681 11.3486 28.0681 11.3484 28.0681 11.3482C28.0681 11.348 28.0681 11.3478 28.0681 11.3477C28.0681 11.3475 28.0681 11.3473 28.0681 11.3471C28.0681 11.3469 28.0681 11.3467 28.0681 11.3465C28.0681 11.3463 28.0681 11.3461 28.0681 11.3459C28.0681 11.3457 28.0681 11.3455 28.0681 11.3453C28.0681 11.3451 28.0681 11.3449 28.0681 11.3447C28.0681 11.3445 28.0681 11.3443 28.0681 11.3441C28.0681 11.3439 28.0681 11.3437 28.0681 11.3436C28.0681 11.3434 28.0681 11.3432 28.0681 11.343C28.0681 11.3428 28.0681 11.3426 28.0681 11.3424C28.0681 11.3422 28.0681 11.342 28.0681 11.3418C28.0681 11.3416 28.0681 11.3414 28.0681 11.3412C28.0681 11.341 28.0681 11.3408 28.0681 11.3406C28.0681 11.3404 28.0681 11.3402 28.0681 11.34C28.0681 11.3398 28.0681 11.3396 28.0681 11.3395C28.0681 11.3393 28.0681 11.3391 28.0681 11.3389C28.0681 11.3387 28.0681 11.3385 28.0681 11.3383C28.0681 11.3381 28.0681 11.3379 28.0681 11.3377C28.0681 11.3375 28.0681 11.3373 28.0681 11.3371C28.0681 11.3369 28.0681 11.3367 28.0681 11.3365C28.0681 11.3363 28.0681 11.3361 28.0681 11.3359C28.0681 11.3357 28.0681 11.3355 28.0681 11.3354C28.0681 11.3352 28.0681 11.335 28.0681 11.3348C28.0681 11.3346 28.0681 11.3344 28.0681 11.3342C28.0681 11.334 28.0681 11.3338 28.0681 11.3336C28.0681 11.3334 28.0681 11.3332 28.0681 11.333C28.0681 11.3328 28.0681 11.3326 28.0681 11.3324C28.0681 11.3322 28.0681 11.332 28.0681 11.3318C28.0681 11.3316 28.0681 11.3314 28.0681 11.3312C28.0681 11.3311 28.0681 11.3309 28.0681 11.3307C28.0681 11.3305 28.0681 11.3303 28.0681 11.3301C28.0681 11.3299 28.0681 11.3297 28.0681 11.3295C28.0681 11.3293 28.0681 11.3291 28.0681 11.3289C28.0681 11.3287 28.0681 11.3285 28.0681 11.3283C28.0681 11.3281 28.0681 11.3279 28.0681 11.3277C28.0681 11.3275 28.0681 11.3273 28.0681 11.3271C28.0681 11.327 28.0681 11.3268 28.0681 11.3266C28.0681 11.3264 28.0681 11.3262 28.0681 11.326C28.0681 11.3258 28.0681 11.3256 28.0681 11.3254C28.0681 11.3252 28.0681 11.325 28.0681 11.3248C28.0681 11.3246 28.0681 11.3244 28.0681 11.3242C28.0681 11.324 28.0681 11.3238 28.0681 11.3236C28.0681 11.3234 28.0681 11.3232 28.0681 11.323C28.0681 11.3228 28.0681 11.3227 28.0681 11.3225C28.0681 11.3223 28.0681 11.3221 28.0681 11.3219C28.0681 11.3217 28.0681 11.3215 28.0681 11.3213C28.0681 11.3211 28.0681 11.3209 28.0681 11.3207C28.0681 11.3205 28.0681 11.3203 28.0681 11.3201C28.0681 11.3199 28.0681 11.3197 28.0681 11.3195C28.0681 11.3193 28.0681 11.3191 28.0681 11.3189C28.0681 11.3187 28.0681 11.3186 28.0681 11.3184C28.0681 11.3182 28.0681 11.318 28.0681 11.3178C28.0681 11.3176 28.0681 11.3174 28.0681 11.3172C28.0681 11.317 28.0681 11.3168 28.0681 11.3166C28.0681 11.3164 28.0681 11.3162 28.0681 11.316C28.0681 11.3158 28.0681 11.3156 28.0681 11.3154C28.0681 11.3152 28.0681 11.315 28.0681 11.3148C28.0681 11.3146 28.0681 11.3145 28.0681 11.3143C28.0681 11.3141 28.0681 11.3139 28.0681 11.3137C28.0681 11.3135 28.0681 11.3133 28.0681 11.3131C28.0681 11.3129 28.0681 11.3127 28.0681 11.3125C28.0681 11.3123 28.0681 11.3121 28.0681 11.3119C28.0681 11.3117 28.0681 11.3115 28.0681 11.3113C28.0681 11.3111 28.0681 11.3109 28.0681 11.3107C28.0681 11.3105 28.0681 11.3103 28.0681 11.3102C28.0681 11.31 28.0681 11.3098 28.0681 11.3096C28.0681 11.3094 28.0681 11.3092 28.0681 11.309C28.0681 11.3088 28.0681 11.3086 28.0681 11.3084C28.0681 11.3082 28.0681 11.308 28.0681 11.3078C28.0681 11.3076 28.0681 11.3074 28.0681 11.3072C28.0681 11.307 28.0681 11.3068 28.0681 11.3066C28.0681 11.3064 28.0681 11.3062 28.0681 11.3061C28.0681 11.3059 28.0681 11.3057 28.0681 11.3055C28.0681 11.3053 28.0681 11.3051 28.0681 11.3049C28.0681 11.3047 28.0681 11.3045 28.0681 11.3043C28.0681 11.3041 28.0681 11.3039 28.0681 11.3037C28.0681 11.3035 28.0681 11.3033 28.0681 11.3031C28.0681 11.3029 28.0681 11.3027 28.0681 11.3025C28.0681 11.3023 28.0681 11.3021 28.0681 11.302C28.0681 11.3018 28.0681 11.3016 28.0681 11.3014C28.0681 11.3012 28.0681 11.301 28.0681 11.3008C28.0681 11.3006 28.0681 11.3004 28.0681 11.3002C28.0681 11.3 28.0681 11.2998 28.0681 11.2996C28.0681 11.2994 28.0681 11.2992 28.0681 11.299C28.0681 11.2988 28.0681 11.2986 28.0681 11.2984C28.0681 11.2982 28.0681 11.298 28.0681 11.2978C28.0681 11.2977 28.0681 11.2975 28.0681 11.2973C28.0681 11.2971 28.0681 11.2969 28.0681 11.2967C28.0681 11.2965 28.0681 11.2963 28.0681 11.2961C28.0681 11.2959 28.0681 11.2957 28.0681 11.2955C28.0681 11.2953 28.0681 11.2951 28.0681 11.2949C28.0681 11.2947 28.0681 11.2945 28.0681 11.2943C28.0681 11.2941 28.0681 11.2939 28.0681 11.2937C28.0681 11.2936 28.0681 11.2934 28.0681 11.2932C28.0681 11.293 28.0681 11.2928 28.0681 11.2926C28.0681 11.2924 28.0681 11.2922 28.0681 11.292C28.0681 11.2918 28.0681 11.2916 28.0681 11.2914C28.0681 11.2912 28.0681 11.291 28.0681 11.2908C28.0681 11.2906 28.0681 11.2904 28.0681 11.2902C28.0681 11.29 28.0681 11.2898 28.0681 11.2896C28.0681 11.2895 28.0681 11.2893 28.0681 11.2891C28.0681 11.2889 28.0681 11.2887 28.0681 11.2885C28.0681 11.2883 28.0681 11.2881 28.0681 11.2879C28.0681 11.2877 28.0681 11.2875 28.0681 11.2873C28.0681 11.2871 28.0681 11.2869 28.0681 11.2867C28.0681 11.2865 28.0681 11.2863 28.0681 11.2861C28.0681 11.2859 28.0681 11.2857 28.0681 11.2855C28.0681 11.2853 28.0681 11.2852 28.0681 11.285C28.0681 11.2848 28.0681 11.2846 28.0681 11.2844C28.0681 11.2842 28.0681 11.284 28.0681 11.2838C28.0681 11.2836 28.0681 11.2834 28.0681 11.2832C28.0681 11.283 28.0681 11.2828 28.0681 11.2826C28.0681 11.2824 28.0681 11.2822 28.0681 11.282C28.0681 11.2818 28.0681 11.2816 28.0681 11.2814C28.0681 11.2812 28.0681 11.2811 28.0681 11.2809C28.0681 11.2807 28.0681 11.2805 28.0681 11.2803C28.0681 11.2801 28.0681 11.2799 28.0681 11.2797C28.0681 11.2795 28.0681 11.2793 28.0681 11.2791C28.0681 11.2789 28.0681 11.2787 28.0681 11.2785C28.0681 11.2783 28.0681 11.2781 28.0681 11.2779C28.0681 11.2777 28.0681 11.2775 28.0681 11.2773C28.0681 11.2771 28.0681 11.277 28.0681 11.2768C28.0681 11.2766 28.0681 11.2764 28.0681 11.2762C28.0681 11.276 28.0681 11.2758 28.0681 11.2756C28.0681 11.2754 28.0681 11.2752 28.0681 11.275C28.0681 11.2748 28.0681 11.2746 28.0681 11.2744C28.0681 11.2742 28.0681 11.274 28.0681 11.2738C28.0681 11.2736 28.0681 11.2734 28.0681 11.2732C28.0681 11.273 28.0681 11.2728 28.0681 11.2727C28.0681 11.2725 28.0681 11.2723 28.0681 11.2721C28.0681 11.2719 28.0681 11.2717 28.0681 11.2715C28.0681 11.2713 28.0681 11.2711 28.0681 11.2709C28.0681 11.2707 28.0681 11.2705 28.0681 11.2703C28.0681 11.2701 28.0681 11.2699 28.0681 11.2697C28.0681 11.2695 28.0681 11.2693 28.0681 11.2691C28.0681 11.2689 28.0681 11.2687 28.0681 11.2686C28.0681 11.2684 28.0681 11.2682 28.0681 11.268C28.0681 11.2678 28.0681 11.2676 28.0681 11.2674C28.0681 11.2672 28.0681 11.267 28.0681 11.2668C28.0681 11.2666 28.0681 11.2664 28.0681 11.2662C28.0681 11.266 28.0681 11.2658 28.0681 11.2656C28.0681 11.2654 28.0681 11.2652 28.0681 11.265C28.0681 11.2648 28.0681 11.2646 28.0681 11.2645C28.0681 11.2643 28.0681 11.2641 28.0681 11.2639C28.0681 11.2637 28.0681 11.2635 28.0681 11.2633C28.0681 11.2631 28.0681 11.2629 28.0681 11.2627C28.0681 11.2625 28.0681 11.2623 28.0681 11.2621C28.0681 11.2619 28.0681 11.2617 28.0681 11.2615C28.0681 11.2613 28.0681 11.2611 28.0681 11.2609C28.0681 11.2607 28.0681 11.2605 28.0681 11.2603C28.0681 11.2602 28.0681 11.26 28.0681 11.2598C28.0681 11.2596 28.0681 11.2594 28.0681 11.2592C28.0681 11.259 28.0681 11.2588 28.0681 11.2586C28.0681 11.2584 28.0681 11.2582 28.0681 11.258C28.0681 11.2578 28.0681 11.2576 28.0681 11.2574C28.0681 11.2572 28.0681 11.257 28.0681 11.2568C28.0681 11.2566 28.0681 11.2564 28.0681 11.2562C28.0681 11.2561 28.0681 11.2559 28.0681 11.2557C28.0681 11.2555 28.0681 11.2553 28.0681 11.2551C28.0681 11.2549 28.0681 11.2547 28.0681 11.2545C28.0681 11.2543 28.0681 11.2541 28.0681 11.2539C28.0681 11.2537 28.0681 11.2535 28.0681 11.2533C28.0681 11.2531 28.0681 11.2529 28.0681 11.2527C28.0681 11.2525 28.0681 11.2523 28.0681 11.2521C28.0681 11.252 28.0681 11.2518 28.0681 11.2516C28.0681 11.2514 28.0681 11.2512 28.0681 11.251C28.0681 11.2508 28.0681 11.2506 28.0681 11.2504C28.0681 11.2502 28.0681 11.25 28.0681 11.2498C28.0681 11.2496 28.0681 11.2494 28.0681 11.2492C28.0681 11.249 28.0681 11.2488 28.0681 11.2486C28.0681 11.2484 28.0681 11.2482 28.0681 11.248C28.0681 11.2478 28.0681 11.2477 28.0681 11.2475C28.0681 11.2473 28.0681 11.2471 28.0681 11.2469C28.0681 11.2467 28.0681 11.2465 28.0681 11.2463C28.0681 11.2461 28.0681 11.2459 28.0681 11.2457C28.0681 11.2455 28.0681 11.2453 28.0681 11.2451C28.0681 11.2449 28.0681 11.2447 28.0681 11.2445C28.0681 11.2443 28.0681 11.2441 28.0681 11.2439C28.0681 11.2437 28.0681 11.2436 28.0681 11.2434C28.0681 11.2432 28.0681 11.243 28.0681 11.2428C28.0681 11.2426 28.0681 11.2424 28.0681 11.2422C28.0681 11.242 28.0681 11.2418 28.0681 11.2416C28.0681 11.2414 28.0681 11.2412 28.0681 11.241C28.0681 11.2408 28.0681 11.2406 28.0681 11.2404C28.0681 11.2402 28.0681 11.24 28.0681 11.2398C28.0681 11.2396 28.0681 11.2395 28.0681 11.2393C28.0681 11.2391 28.0681 11.2389 28.0681 11.2387C28.0681 11.2385 28.0681 11.2383 28.0681 11.2381C28.0681 11.2379 28.0681 11.2377 28.0681 11.2375C28.0681 11.2373 28.0681 11.2371 28.0681 11.2369C28.0681 11.2367 28.0681 11.2365 28.0681 11.2363C28.0681 11.2361 28.0681 11.2359 28.0681 11.2357C28.0681 11.2355 28.0681 11.2353 28.0681 11.2352C28.0681 11.235 28.0681 11.2348 28.0681 11.2346C28.0681 11.2344 28.0681 11.2342 28.0681 11.234C28.0681 11.2338 28.0681 11.2336 28.0681 11.2334C28.0681 11.2332 28.0681 11.233 28.0681 11.2328C28.0681 11.2326 28.0681 11.2324 28.0681 11.2322C28.0681 11.232 28.0681 11.2318 28.0681 11.2316C28.0681 11.2314 28.0681 11.2312 28.0681 11.2311C28.0681 11.2309 28.0681 11.2307 28.0681 11.2305C28.0681 11.2303 28.0681 11.2301 28.0681 11.2299C28.0681 11.2297 28.0681 11.2295 28.0681 11.2293C28.0681 11.2291 28.0681 11.2289 28.0681 11.2287C28.0681 11.2285 28.0681 11.2283 28.0681 11.2281C28.0681 11.2279 28.0681 11.2277 28.0681 11.2275C28.0681 11.2273 28.0681 11.2271 28.0681 11.227C28.0681 11.2268 28.0681 11.2266 28.0681 11.2264C28.0681 11.2262 28.0681 11.226 28.0681 11.2258C28.0681 11.2256 28.0681 11.2254 28.0681 11.2252C28.0681 11.225 28.0681 11.2248 28.0681 11.2246C28.0681 11.2244 28.0681 11.2242 28.0681 11.224C28.0681 11.2238 28.0681 11.2236 28.0681 11.2234C28.0681 11.2232 28.0681 11.223 28.0681 11.2228C28.0681 11.2227 28.0681 11.2225 28.0681 11.2223C28.0681 11.2221 28.0681 11.2219 28.0681 11.2217C28.0681 11.2215 28.0681 11.2213 28.0681 11.2211C28.0681 11.2209 28.0681 11.2207 28.0681 11.2205C28.0681 11.2203 28.0681 11.2201 28.0681 11.2199C28.0681 11.2197 28.0681 11.2195 28.0681 11.2193C28.0681 11.2191 28.0681 11.2189 28.0681 11.2187C28.0681 11.2186 28.0681 11.2184 28.0681 11.2182C28.0681 11.218 28.0681 11.2178 28.0681 11.2176C28.0681 11.2174 28.0681 11.2172 28.0681 11.217C28.0681 11.2168 28.0681 11.2166 28.0681 11.2164C28.0681 11.2162 28.0681 11.216 28.0681 11.2158C28.0681 11.2156 28.0681 11.2154 28.0681 11.2152C28.0681 11.215 28.0681 11.2148 28.0681 11.2146C28.0681 11.2145 28.0681 11.2143 28.0681 11.2141C28.0681 11.2139 28.0681 11.2137 28.0681 11.2135C28.0681 11.2133 28.0681 11.2131 28.0681 11.2129C28.0681 11.2127 28.0681 11.2125 28.0681 11.2123C28.0681 11.2121 28.0681 11.2119 28.0681 11.2117C28.0681 11.2115 28.0681 11.2113 28.0681 11.2111C28.0681 11.2109 28.0681 11.2107 28.0681 11.2105C28.0681 11.2103 28.0681 11.2102 28.0681 11.21C28.0681 11.2098 28.0681 11.2096 28.0681 11.2094C28.0681 11.2092 28.0681 11.209 28.0681 11.2088C28.0681 11.2086 28.0681 11.2084 28.0681 11.2082C28.0681 11.208 28.0681 11.2078 28.0681 11.2076C28.0681 11.2074 28.0681 11.2072 28.0681 11.207C28.0681 11.2068 28.0681 11.2066 28.0681 11.2064C28.0681 11.2062 28.0681 11.2061 28.0681 11.2059C28.0681 11.2057 28.0681 11.2055 28.0681 11.2053C28.0681 11.2051 28.0681 11.2049 28.0681 11.2047C28.0681 11.2045 28.0681 11.2043 28.0681 11.2041C28.0681 11.2039 28.0681 11.2037 28.0681 11.2035C28.0681 11.2033 28.0681 11.2031 28.0681 11.2029C28.0681 11.2027 28.0681 11.2025 28.0681 11.2023C28.0681 11.2021 28.0681 11.202 28.0681 11.2018C28.0681 11.2016 28.0681 11.2014 28.0681 11.2012C28.0681 11.201 28.0681 11.2008 28.0681 11.2006C28.0681 11.2004 28.0681 11.2002 28.0681 11.2C28.0681 11.1998 28.0681 11.1996 28.0681 11.1994C28.0681 11.1992 28.0681 11.199 28.0681 11.1988C28.0681 11.1986 28.0681 11.1984 28.0681 11.1982C28.0681 11.198 28.0681 11.1978 28.0681 11.1977C28.0681 11.1975 28.0681 11.1973 28.0681 11.1971C28.0681 11.1969 28.0681 11.1967 28.0681 11.1965C28.0681 11.1963 28.0681 11.1961 28.0681 11.1959C28.0681 11.1957 28.0681 11.1955 28.0681 11.1953C28.0681 11.1951 28.0681 11.1949 28.0681 11.1947C28.0681 11.1945 28.0681 11.1943 28.0681 11.1941C28.0681 11.1939 28.0681 11.1937 28.0681 11.1936C28.0681 11.1934 28.0681 11.1932 28.0681 11.193C28.0681 11.1928 28.0681 11.1926 28.0681 11.1924C28.0681 11.1922 28.0681 11.192 28.0681 11.1918H19.8319ZM19.8319 11.4918C19.8319 11.8864 19.6847 12.7965 19.0363 14.3881L26.6637 17.4955C27.482 15.487 28.0681 13.4305 28.0681 11.4918H19.8319ZM19.0466 14.363C18.6989 15.2007 18.4411 15.7576 18.267 16.0889C18.1782 16.258 18.1486 16.296 18.1764 16.2559C18.1917 16.2337 18.2507 16.1493 18.3537 16.0342C18.4429 15.9345 18.6627 15.7007 19.0157 15.4654L23.5843 22.3182C24.3395 21.8147 24.7917 21.1705 24.9549 20.934C25.1868 20.598 25.3885 20.2422 25.558 19.9197C25.9006 19.2677 26.2678 18.4495 26.6534 17.5206L19.0466 14.363ZM23.1873 15.2317C20.696 13.9471 18.1206 13.1237 15.55 13.1237V21.3598C16.3795 21.3598 17.6373 21.6365 19.4127 22.5519L23.1873 15.2317ZM15.55 13.1237C14.3461 13.1237 12.7016 13.3183 11.2688 14.3499C9.58581 15.5616 8.93195 17.3724 8.93195 19.0418H17.1681C17.1681 19.2161 17.1372 19.5655 16.9432 19.9844C16.739 20.4255 16.4265 20.7851 16.0812 21.0337C15.4818 21.4653 15.0873 21.3598 15.55 21.3598V13.1237ZM8.93195 19.0418C8.93195 22.4283 11.7638 24.0828 13.1807 24.7338L16.6193 17.2498C16.2583 17.084 16.311 17.0458 16.5 17.245C16.6101 17.3611 16.7824 17.5753 16.9269 17.8995C17.0772 18.2366 17.1681 18.6284 17.1681 19.0418H8.93195ZM13.0584 24.6751C13.375 24.8334 13.798 25.0352 14.3085 25.2735L17.7915 17.8101C17.302 17.5817 16.9583 17.4168 16.7416 17.3085L13.0584 24.6751ZM14.3085 25.2735C14.7346 25.4723 15.2408 25.7248 15.832 26.0359L19.668 18.7477C18.9925 18.3922 18.3654 18.0779 17.7915 17.8101L14.3085 25.2735ZM16.0601 26.1471C16.4662 26.3299 16.9554 26.6024 17.5302 26.9942L22.1699 20.1893C21.2779 19.5812 20.3672 19.0537 19.4399 18.6365L16.0601 26.1471ZM17.7088 27.1094C18.183 27.398 18.7821 27.8488 19.5068 28.5178L25.0932 22.4658C24.0846 21.5348 23.0504 20.7189 21.9912 20.0742L17.7088 27.1094ZM19.4741 28.4872C20.3087 29.2746 20.8319 30.3356 20.8319 32.0918H29.0681C29.0681 28.3813 27.8247 25.0424 25.1259 22.4964L19.4741 28.4872ZM20.8319 32.0918C20.8319 34.8634 20.0882 36.7615 18.8895 38.143L25.1105 43.5406C27.8451 40.3888 29.0681 36.4535 29.0681 32.0918H20.8319ZM18.8895 38.143C17.9405 39.2368 16.2098 40.1694 12.833 40.2243L12.967 48.4593C17.7902 48.3809 22.1261 46.9801 25.1105 43.5406L18.8895 38.143ZM12.9 40.2237C11.1237 40.2237 9.58845 40.0753 8.27345 39.8069L6.62655 47.8767C8.57822 48.275 10.6763 48.4599 12.9 48.4599V40.2237ZM8.28989 39.8103C7.28837 39.6017 6.49496 39.2178 5.83338 38.6848L0.666624 45.0987C2.40504 46.4991 4.41163 47.4153 6.61011 47.8733L8.28989 39.8103ZM5.83338 38.6848C5.71764 38.5916 5.64845 38.5194 5.60989 38.4737C5.59066 38.4509 5.57861 38.4342 5.57168 38.4239C5.56482 38.4137 5.5622 38.4085 5.56213 38.4084C5.56211 38.4084 5.56355 38.4112 5.56546 38.4164C5.56738 38.4216 5.56882 38.4265 5.5697 38.4302C5.57193 38.4397 5.56805 38.4298 5.56805 38.3918H-2.66805C-2.66805 41.1739 -1.36383 43.4631 0.666624 45.0987L5.83338 38.6848ZM5.56805 38.3918C5.56805 37.5395 5.72186 36.6784 6.05585 35.7877L-1.65585 32.8959C-2.32186 34.6719 -2.66805 36.5107 -2.66805 38.3918H5.56805ZM6.06736 35.7567C6.26137 35.2264 6.41906 34.9077 6.51773 34.7412C6.56437 34.6625 6.58029 34.6477 6.55781 34.675C6.53617 34.7012 6.4547 34.7959 6.30151 34.913L1.29849 28.3706C-0.264711 29.566 -1.12627 31.4479 -1.66736 32.9269L6.06736 35.7567ZM47.6625 31.4918H51.7806V27.3737H47.6625V31.4918ZM40.6625 31.4918V27.3737H36.5444V31.4918H40.6625ZM40.6625 21.5918H36.5444V25.7098H40.6625V21.5918ZM47.6625 21.5918V25.7098H51.7806V21.5918H47.6625ZM50.1625 8.9418L49.8467 4.83587L49.7591 4.84261L49.6719 4.85308L50.1625 8.9418ZM52.7125 8.84179L52.8739 4.7269L52.7932 4.72374H52.7125V8.84179ZM55.2625 8.9418L55.7531 4.85308L55.589 4.83338L55.4239 4.82691L55.2625 8.9418ZM53.6445 42.9918C53.6445 41.944 54.0637 41.0921 54.5439 40.5263C54.9696 40.0247 55.4076 39.7801 55.5907 39.6877C55.9349 39.5139 56.1029 39.5202 55.8165 39.5684C55.3249 39.6511 54.342 39.7237 52.7125 39.7237V47.9599C54.4497 47.9599 55.9918 47.8908 57.1835 47.6902C57.7388 47.5968 58.5381 47.426 59.3031 47.0397C59.9202 46.728 61.8806 45.5435 61.8806 42.9918H53.6445ZM52.7125 39.7237C51.083 39.7237 50.1001 39.6511 49.6085 39.5684C49.3221 39.5202 49.4901 39.5139 49.8343 39.6877C50.0174 39.7801 50.4554 40.0247 50.8811 40.5263C51.3613 41.0921 51.7806 41.944 51.7806 42.9918H43.5444C43.5444 45.5435 45.5048 46.728 46.1219 47.0397C46.8869 47.426 47.6862 47.5968 48.2415 47.6902C49.4332 47.8908 50.9753 47.9599 52.7125 47.9599V39.7237ZM51.7806 42.9918V31.4918H43.5444V42.9918H51.7806ZM47.6625 27.3737H40.6625V35.6098H47.6625V27.3737ZM36.5444 31.4918V42.9918H44.7806V31.4918H36.5444ZM36.5444 42.9918C36.5444 41.944 36.9637 41.0921 37.4439 40.5263C37.8696 40.0247 38.3076 39.7801 38.4907 39.6877C38.8349 39.5139 39.0029 39.5202 38.7165 39.5684C38.2249 39.6511 37.242 39.7237 35.6125 39.7237V47.9599C37.3497 47.9599 38.8918 47.8908 40.0835 47.6902C40.6388 47.5968 41.4381 47.426 42.2031 47.0397C42.8202 46.728 44.7806 45.5435 44.7806 42.9918H36.5444ZM35.6125 39.7237C33.983 39.7237 33.0001 39.6511 32.5085 39.5684C32.2221 39.5202 32.3901 39.5139 32.7343 39.6877C32.9174 39.7801 33.3554 40.0247 33.7811 40.5263C34.2613 41.0921 34.6806 41.944 34.6806 42.9918H26.4444C26.4444 45.5435 28.4048 46.728 29.0219 47.0397C29.7869 47.426 30.5862 47.5968 31.1415 47.6902C32.3332 47.8908 33.8753 47.9599 35.6125 47.9599V39.7237ZM34.6806 42.9918V9.8418H26.4444V42.9918H34.6806ZM34.6806 9.8418C34.6806 10.6395 34.4238 11.3626 34.0355 11.9277C33.6793 12.4461 33.2804 12.7375 33.0576 12.8765C32.6605 13.1242 32.422 13.1363 32.6633 13.0861C33.0784 12.9998 33.9973 12.9098 35.6125 12.9098V4.67374C33.8611 4.67374 32.2549 4.75878 30.9867 5.02247C30.3863 5.1473 29.5166 5.37817 28.6987 5.88838C27.8339 6.42777 26.4444 7.69868 26.4444 9.8418H34.6806ZM35.6125 12.9098C37.2277 12.9098 38.1466 12.9998 38.5617 13.0861C38.803 13.1363 38.5645 13.1242 38.1674 12.8765C37.9446 12.7375 37.5457 12.4461 37.1895 11.9277C36.8012 11.3626 36.5444 10.6395 36.5444 9.8418H44.7806C44.7806 7.69868 43.3911 6.42777 42.5263 5.88838C41.7084 5.37817 40.8387 5.1473 40.2383 5.02247C38.9701 4.75878 37.3639 4.67374 35.6125 4.67374V12.9098ZM36.5444 9.8418V21.5918H44.7806V9.8418H36.5444ZM40.6625 25.7098H47.6625V17.4737H40.6625V25.7098ZM51.7806 21.5918V9.9418H43.5444V21.5918H51.7806ZM51.7806 9.9418C51.7806 11.2021 51.1703 12.1078 50.6706 12.5875C50.2411 12.9998 49.8573 13.1492 49.8169 13.1653C49.7268 13.2013 49.9243 13.118 50.6531 13.0305L49.6719 4.85308C48.734 4.96562 47.6815 5.14892 46.7581 5.51828C46.301 5.70111 45.6047 6.03376 44.9669 6.64608C44.2589 7.32576 43.5444 8.44818 43.5444 9.9418H51.7806ZM50.4783 13.0477C51.2444 12.9888 51.989 12.9598 52.7125 12.9598V4.72374C51.7694 4.72374 50.8139 4.76147 49.8467 4.83587L50.4783 13.0477ZM52.5511 12.9567L55.1011 13.0567L55.4239 4.82691L52.8739 4.7269L52.5511 12.9567ZM54.7719 13.0305C55.5007 13.118 55.6982 13.2013 55.6081 13.1653C55.5677 13.1492 55.1839 12.9998 54.7544 12.5875C54.2547 12.1078 53.6445 11.2021 53.6445 9.9418H61.8806C61.8806 8.44818 61.1661 7.32576 60.4581 6.64608C59.8203 6.03376 59.124 5.70111 58.6669 5.51828C57.7435 5.14892 56.691 4.96562 55.7531 4.85308L54.7719 13.0305ZM53.6445 9.9418V42.9918H61.8806V9.9418H53.6445ZM67.6402 39.7418L64.6644 42.5883L64.6724 42.5967L64.6805 42.605L67.6402 39.7418ZM67.6902 12.9418L64.7623 10.046L64.7542 10.0542L64.7462 10.0624L67.6902 12.9418ZM90.6902 12.8918L87.7294 15.7539L87.7374 15.7622L87.7454 15.7704L90.6902 12.8918ZM90.5902 39.9418L93.4856 42.8701L93.4939 42.8619L93.5021 42.8537L90.5902 39.9418ZM75.0902 20.1918L71.7958 17.721L71.7776 17.7452L71.7598 17.7697L75.0902 20.1918ZM75.0402 32.4918L71.6998 34.9L71.7133 34.9188L71.727 34.9373L75.0402 32.4918ZM83.1902 32.4418L79.8866 29.9833L79.868 30.0083L79.8498 30.0336L83.1902 32.4418ZM83.1402 20.1418L79.8366 22.6003L79.8548 22.6248L79.8733 22.6489L83.1402 20.1418ZM79.0902 40.2237C75.4237 40.2237 72.7139 39.0637 70.6 36.8786L64.6805 42.605C68.4999 46.5532 73.4234 48.4599 79.0902 48.4599V40.2237ZM70.6161 36.8953C68.6576 34.8478 67.3583 31.5587 67.3583 26.3418H59.1222C59.1222 32.8582 60.7562 38.5025 64.6644 42.5883L70.6161 36.8953ZM67.3583 26.3418C67.3583 21.0919 68.6733 17.8263 70.6343 15.8212L64.7462 10.0624C60.7738 14.124 59.1222 19.7917 59.1222 26.3418H67.3583ZM70.6182 15.8376C72.7622 13.6697 75.5173 12.5098 79.2402 12.5098V4.27374C73.5632 4.27374 68.6183 6.1472 64.7623 10.046L70.6182 15.8376ZM79.2402 12.5098C83.0215 12.5098 85.7125 13.6675 87.7294 15.7539L93.6511 10.0297C89.868 6.1161 84.9257 4.27374 79.2402 4.27374V12.5098ZM87.7454 15.7704C89.6067 17.6745 90.9222 20.9563 90.9222 26.4418H99.1583C99.1583 19.794 97.5738 14.0425 93.635 10.0132L87.7454 15.7704ZM90.9222 26.4418C90.9222 31.8636 89.5888 35.1194 87.6783 37.0299L93.5021 42.8537C97.525 38.8308 99.1583 33.0867 99.1583 26.4418H90.9222ZM87.6948 37.0135C85.5992 39.0856 82.8556 40.2237 79.0902 40.2237V48.4599C84.7249 48.4599 89.6479 46.6647 93.4856 42.8701L87.6948 37.0135ZM79.1402 13.8737C76.0426 13.8737 73.5442 15.3898 71.7958 17.721L78.3847 22.6626C78.6471 22.3127 78.8295 22.1952 78.8934 22.1604C78.9396 22.1353 78.9973 22.1098 79.1402 22.1098V13.8737ZM71.7598 17.7697C69.9913 20.2013 69.3722 23.2456 69.3722 26.3918H77.6083C77.6083 24.2047 78.0558 23.1156 78.4207 22.6139L71.7598 17.7697ZM69.3722 26.3918C69.3722 29.4875 69.9679 32.4977 71.6998 34.9L78.3807 30.0836C78.0459 29.6192 77.6083 28.5627 77.6083 26.3918H69.3722ZM71.727 34.9373C73.4965 37.3347 76.0501 38.7099 79.0902 38.7099V30.4737C78.8521 30.4737 78.7579 30.4289 78.7233 30.411C78.6828 30.3899 78.5504 30.3131 78.3535 30.0463L71.727 34.9373ZM79.0902 38.7099C82.1742 38.7099 84.7594 37.3071 86.5307 34.85L79.8498 30.0336C79.6522 30.3076 79.5185 30.3859 79.4778 30.4073C79.4426 30.4257 79.343 30.4737 79.0902 30.4737V38.7099ZM86.4939 34.9003C88.2926 32.4832 88.9083 29.4291 88.9083 26.2918H80.6722C80.6722 28.4878 80.2212 29.5337 79.8866 29.9833L86.4939 34.9003ZM88.9083 26.2918C88.9083 23.1324 88.2669 20.058 86.4071 17.6346L79.8733 22.6489C80.2136 23.0922 80.6722 24.1179 80.6722 26.2918H88.9083ZM86.4439 17.6833C84.7045 15.346 82.2072 13.8737 79.1402 13.8737V22.1098C79.2998 22.1098 79.3576 22.1388 79.3906 22.1566C79.4384 22.1823 79.5992 22.2813 79.8366 22.6003L86.4439 17.6833ZM121.355 11.8918L118.537 14.8946L118.548 14.9054L118.56 14.916L121.355 11.8918ZM121.555 29.5418L124.81 32.0644V32.0644L121.555 29.5418ZM117.005 32.7418L115.475 28.9183L117.005 32.7418ZM110.005 33.9418V29.8237H105.887V33.9418H110.005ZM108.105 43.7418L108.547 47.836L108.595 47.8309L108.642 47.8247L108.105 43.7418ZM110.005 17.5418V13.4237H105.887V17.5418H110.005ZM110.005 25.4418H105.887V29.5598H110.005V25.4418ZM113.605 24.3418L116.387 27.3774L116.387 27.3774L113.605 24.3418ZM113.955 18.3918L110.956 21.2142L110.999 21.2596L111.043 21.3037L113.955 18.3918ZM104.905 39.8237C103.461 39.8237 102.686 39.7378 102.376 39.6697C102.191 39.629 102.478 39.659 102.906 39.9413C103.146 40.0998 103.538 40.4081 103.879 40.9319C104.245 41.4963 104.473 42.1926 104.473 42.9418H96.2366C96.2366 44.9669 97.4885 46.2346 98.3722 46.8173C99.1796 47.3496 100.035 47.5879 100.608 47.7139C101.815 47.9792 103.315 48.0598 104.905 48.0598V39.8237ZM104.473 42.9418V10.5418H96.2366V42.9418H104.473ZM104.473 10.5418C104.473 10.5582 104.472 10.73 104.392 10.9955C104.306 11.2763 104.129 11.6641 103.785 12.0413C103.019 12.8817 102.126 12.9598 101.905 12.9598V4.72374C100.65 4.72374 98.982 5.08523 97.6991 6.49224C96.482 7.82715 96.2366 9.42968 96.2366 10.5418H104.473ZM101.905 12.9598H110.705V4.72374H101.905V12.9598ZM110.705 12.9598C115.24 12.9598 117.502 13.9239 118.537 14.8946L124.173 8.88896C120.874 5.79306 116.036 4.72374 110.705 4.72374V12.9598ZM118.56 14.916C119.688 15.9586 120.537 17.6703 120.537 20.7418H128.773C128.773 16.08 127.422 11.8916 124.15 8.86759L118.56 14.916ZM120.537 20.7418C120.537 22.9767 119.839 25.0324 118.3 27.0192L124.81 32.0644C127.403 28.7179 128.773 24.9069 128.773 20.7418H120.537ZM118.3 27.0192C117.824 27.6334 116.98 28.3165 115.475 28.9183L118.534 36.5653C121.03 35.5671 123.219 34.1169 124.81 32.0644L118.3 27.0192ZM115.475 28.9183C114.062 29.4835 112.268 29.8237 110.005 29.8237V38.0598C113.075 38.0598 115.947 37.6001 118.534 36.5653L115.475 28.9183ZM105.887 33.9418V42.8918H114.123V33.9418H105.887ZM105.887 42.8918C105.887 41.7846 106.363 40.9127 106.866 40.3706C107.301 39.9006 107.725 39.7002 107.848 39.6453C108.081 39.5408 108.078 39.5917 107.567 39.6589L108.642 47.8247C109.398 47.7252 110.345 47.5511 111.211 47.1633C111.849 46.878 114.123 45.6883 114.123 42.8918H105.887ZM107.662 39.6476C106.525 39.7705 105.613 39.8237 104.905 39.8237V48.0598C105.996 48.0598 107.218 47.9797 108.547 47.836L107.662 39.6476ZM105.887 17.5418V25.4418H114.123V17.5418H105.887ZM110.005 29.5598H110.655V21.3237H110.005V29.5598ZM110.655 29.5598C112.767 29.5598 114.768 28.8619 116.387 27.3774L110.822 21.3062C110.807 21.3201 110.802 21.3219 110.808 21.3181C110.815 21.3142 110.823 21.3104 110.828 21.3083C110.834 21.3062 110.827 21.3095 110.803 21.3136C110.778 21.3178 110.73 21.3237 110.655 21.3237V29.5598ZM116.387 27.3774C118.227 25.6908 118.923 23.4452 118.923 21.2418H110.687C110.687 21.5007 110.648 21.5733 110.664 21.5302C110.673 21.5082 110.691 21.4688 110.723 21.4217C110.755 21.3743 110.791 21.3349 110.822 21.3062L116.387 27.3774ZM118.923 21.2418C118.923 19.5023 118.583 17.1967 116.867 15.4799L111.043 21.3037C110.741 21.0019 110.654 20.7333 110.646 20.7063C110.642 20.6933 110.653 20.727 110.665 20.8208C110.676 20.914 110.687 21.052 110.687 21.2418H118.923ZM116.953 15.5694C115.211 13.7185 112.754 13.4237 111.055 13.4237V21.6598C111.269 21.6598 111.426 21.6708 111.534 21.6838C111.643 21.6969 111.684 21.7097 111.671 21.7061C111.654 21.701 111.319 21.5994 110.956 21.2142L116.953 15.5694ZM111.055 13.4237H110.005V21.6598H111.055V13.4237ZM148.17 43.0418L151.804 41.1039L151.801 41.0985L148.17 43.0418ZM139.82 27.4418L143.451 25.4985L135.702 27.4418H139.82ZM138.12 9.09179L137.524 13.1664L137.579 13.1744L137.633 13.181L138.12 9.09179ZM140.67 10.0918L144.325 8.19342L144.266 8.08136L144.202 7.97308L140.67 10.0918ZM148.67 25.4918L145.016 27.3902L152.788 25.4918H148.67ZM153.852 42.7418C153.852 42.0117 154.07 41.3283 154.428 40.7694C154.76 40.2492 155.145 39.9406 155.384 39.7804C155.808 39.4958 156.091 39.4671 155.897 39.5103C155.57 39.5835 154.763 39.6737 153.27 39.6737V47.9099C154.911 47.9099 156.454 47.8251 157.693 47.5483C158.283 47.4165 159.153 47.169 159.969 46.622C160.869 46.0189 162.088 44.7436 162.088 42.7418H153.852ZM153.27 39.6737C151.77 39.6737 150.797 39.6113 150.244 39.5301C149.955 39.4875 149.952 39.4634 150.106 39.5222C150.19 39.5539 150.417 39.6468 150.699 39.8439C150.977 40.0382 151.445 40.4314 151.804 41.1039L144.537 44.9797C145.333 46.473 146.7 47.0377 147.172 47.2177C147.817 47.4639 148.486 47.5961 149.046 47.6785C150.194 47.8473 151.638 47.9099 153.27 47.9099V39.6737ZM151.801 41.0985L143.451 25.4985L136.19 29.3851L144.54 44.9851L151.801 41.0985ZM135.702 27.4418V42.9918H143.938V27.4418H135.702ZM135.702 42.9918C135.702 42.1085 136.008 41.3343 136.434 40.7572C136.82 40.2341 137.242 39.9519 137.462 39.8243C137.86 39.5932 138.1 39.5803 137.875 39.6238C137.499 39.6965 136.657 39.7737 135.17 39.7737V48.0098C136.783 48.0098 138.266 47.9371 139.44 47.7098C139.991 47.6033 140.812 47.4029 141.598 46.9468C142.379 46.4931 143.938 45.256 143.938 42.9918H135.702ZM135.17 39.7737C133.701 39.7737 132.874 39.6965 132.511 39.6254C132.293 39.5827 132.54 39.5977 132.942 39.8341C133.165 39.9647 133.585 40.25 133.968 40.7743C134.39 41.3516 134.688 42.1199 134.688 42.9918H126.452C126.452 45.2337 127.983 46.4731 128.773 46.937C129.559 47.3984 130.381 47.6009 130.93 47.7082C132.099 47.9371 133.573 48.0098 135.17 48.0098V39.7737ZM134.688 42.9918V9.54179H126.452V42.9918H134.688ZM134.688 9.54179C134.688 10.4582 134.365 11.2545 133.923 11.8419C133.523 12.3734 133.086 12.6605 132.855 12.7919C132.433 13.0326 132.155 13.0575 132.326 13.0251C132.592 12.9745 133.265 12.9098 134.52 12.9098V4.67374C133.142 4.67374 131.84 4.73408 130.79 4.93353C130.302 5.02611 129.531 5.2072 128.779 5.63541C128.048 6.05199 126.452 7.26272 126.452 9.54179H134.688ZM134.52 12.9098C135.301 12.9098 136.294 12.9864 137.524 13.1664L138.717 5.01714C137.214 4.79721 135.807 4.67374 134.52 4.67374V12.9098ZM137.633 13.181C137.876 13.2098 138.053 13.2411 138.174 13.268C138.298 13.2957 138.334 13.3121 138.304 13.3006C138.28 13.291 138.131 13.2313 137.926 13.0826C137.715 12.9301 137.405 12.6536 137.139 12.2105L144.202 7.97308C143.385 6.61156 142.134 5.95563 141.311 5.633C140.433 5.28873 139.489 5.10755 138.607 5.00262L137.633 13.181ZM137.016 11.9902L145.016 27.3902L152.325 23.5934L144.325 8.19342L137.016 11.9902ZM152.788 25.4918V9.79179H144.552V25.4918H152.788ZM152.788 9.79179C152.788 10.6152 152.519 11.3559 152.118 11.929C151.751 12.4536 151.341 12.7471 151.113 12.8872C150.703 13.1386 150.445 13.1574 150.657 13.114C151.012 13.0414 151.837 12.9598 153.32 12.9598V4.72374C151.704 4.72374 150.203 4.8005 149.009 5.04458C148.446 5.15956 147.607 5.37621 146.809 5.86511C145.976 6.37585 144.552 7.62996 144.552 9.79179H152.788ZM153.32 12.9598C154.804 12.9598 155.628 13.0414 155.984 13.114C156.196 13.1574 155.938 13.1386 155.528 12.8872C155.299 12.7471 154.89 12.4536 154.523 11.929C154.122 11.3559 153.852 10.6152 153.852 9.79179H162.088C162.088 7.62996 160.665 6.37585 159.832 5.86511C159.034 5.37621 158.195 5.15956 157.632 5.04458C156.437 4.8005 154.937 4.72374 153.32 4.72374V12.9598ZM153.852 9.79179V42.7418H162.088V9.79179H153.852ZM181.442 28.7418L177.384 28.0421L177.374 28.1006L177.366 28.1594L181.442 28.7418ZM174.292 30.1418V26.0237H170.174V30.1418H174.292ZM174.292 35.1418H170.174V39.2598H174.292V35.1418ZM184.642 37.3418L180.562 37.8982L180.568 37.9412L180.575 37.9841L184.642 37.3418ZM184.492 42.1418L180.437 41.4261L184.492 42.1418ZM174.292 17.6918V13.5737H170.174V17.6918H174.292ZM174.292 22.7418H170.174V26.8598H174.292V22.7418ZM180.742 26.8598C180.161 26.8598 179.576 26.7191 179.047 26.4406C178.537 26.1721 178.186 25.8334 177.965 25.5608C177.748 25.2944 177.628 25.0612 177.569 24.9313C177.508 24.7973 177.484 24.7099 177.48 24.6955C177.475 24.6773 177.505 24.7861 177.532 25.0816C177.557 25.3634 177.574 25.7449 177.574 26.2418H185.81C185.81 24.9821 185.734 23.6632 185.429 22.5381C185.28 21.9887 184.988 21.1429 184.351 20.3603C183.614 19.4545 182.376 18.6237 180.742 18.6237V26.8598ZM177.574 26.2418C177.574 26.6351 177.525 27.2224 177.384 28.0421L185.5 29.4415C185.692 28.3279 185.81 27.2485 185.81 26.2418H177.574ZM177.366 28.1594C177.325 28.4403 177.317 28.185 177.567 27.7487C177.709 27.4995 178.008 27.0639 178.556 26.6807C179.152 26.2634 179.882 26.0237 180.642 26.0237V34.2598C182.819 34.2598 184.138 32.8497 184.718 31.8349C185.234 30.932 185.426 29.9766 185.519 29.3242L177.366 28.1594ZM180.642 26.0237H174.292V34.2598H180.642V26.0237ZM170.174 30.1418V35.1418H178.41V30.1418H170.174ZM174.292 39.2598H183.492V31.0237H174.292V39.2598ZM183.492 39.2598C182.667 39.2598 181.923 38.9688 181.366 38.5391C180.871 38.1568 180.637 37.7557 180.555 37.5995C180.417 37.3345 180.484 37.3255 180.562 37.8982L188.722 36.7854C188.601 35.8914 188.376 34.7824 187.854 33.7841C187.318 32.7589 185.964 31.0237 183.492 31.0237V39.2598ZM180.575 37.9841C180.637 38.3773 180.674 38.8436 180.674 39.3918H188.91C188.91 38.4733 188.848 37.573 188.71 36.6995L180.575 37.9841ZM180.674 39.3918C180.674 39.7487 180.618 40.3992 180.437 41.4261L188.548 42.8575C188.766 41.6177 188.91 40.4349 188.91 39.3918H180.674ZM180.437 41.4261C180.368 41.8159 180.34 41.6734 180.543 41.3289C180.659 41.1308 180.929 40.7351 181.437 40.3751C181.996 39.9794 182.712 39.7237 183.492 39.7237V47.9599C185.744 47.9599 187.071 46.4746 187.642 45.5047C188.178 44.5936 188.416 43.601 188.548 42.8575L180.437 41.4261ZM183.492 39.7237H166.392V47.9599H183.492V39.7237ZM166.392 39.7237C166.213 39.7237 166.843 39.6703 167.57 40.2634C167.958 40.58 168.249 40.9853 168.423 41.4123C168.587 41.8141 168.61 42.1373 168.61 42.2918H160.374C160.374 43.6898 160.843 45.4047 162.364 46.6452C163.724 47.7549 165.305 47.9599 166.392 47.9599V39.7237ZM168.61 42.2918V10.1418H160.374V42.2918H168.61ZM168.61 10.1418C168.61 10.2274 168.602 11.0609 167.864 11.8953C167.041 12.826 166.033 12.9598 165.642 12.9598V4.72374C164.484 4.72374 162.902 5.07423 161.695 6.43828C160.574 7.70604 160.374 9.18947 160.374 10.1418H168.61ZM165.642 12.9598H183.542V4.72374H165.642V12.9598ZM183.542 12.9598C182.86 12.9598 182.207 12.7678 181.655 12.434C181.137 12.1202 180.817 11.7483 180.64 11.4992C180.327 11.0567 180.285 10.7427 180.322 10.9C180.384 11.163 180.474 11.8872 180.474 13.2918H188.71C188.71 11.7297 188.626 10.2289 188.338 9.00859C188.2 8.42419 187.938 7.55397 187.363 6.74066C186.714 5.82442 185.44 4.72374 183.542 4.72374V12.9598ZM180.474 13.2918C180.474 14.6787 180.384 15.3861 180.324 15.6359C180.288 15.7857 180.334 15.4655 180.653 15.0196C180.833 14.7687 181.155 14.3997 181.673 14.0897C182.222 13.7609 182.869 13.5737 183.542 13.5737V21.8098C185.419 21.8098 186.692 20.7325 187.35 19.814C187.932 19.0014 188.196 18.1312 188.335 17.5477C188.626 16.3308 188.71 14.8383 188.71 13.2918H180.474ZM183.542 13.5737H174.292V21.8098H183.542V13.5737ZM170.174 17.6918V22.7418H178.41V17.6918H170.174ZM174.292 26.8598H180.742V18.6237H174.292V26.8598ZM209.2 10.1918L212.946 11.9024L212.987 11.8127L213.024 11.7212L209.2 10.1918ZM219 8.9418L218.514 13.031L218.566 13.0372L218.619 13.0421L219 8.9418ZM221.15 9.34179L224.846 11.1578L225.268 10.2988V9.34179H221.15ZM212.65 26.6418L208.954 24.8258L208.026 26.7158L209.014 28.5751L212.65 26.6418ZM221.45 43.1918L217.814 45.1251L217.864 45.2192L217.919 45.3105L221.45 43.1918ZM219.3 43.6918L219.657 47.7944L219.701 47.7905L219.745 47.7857L219.3 43.6918ZM208.45 42.1918L212.334 40.8212L212.31 40.7535L212.284 40.6866L208.45 42.1918ZM204.7 32.6418L208.534 31.1366L204.452 20.7415L200.808 31.2981L204.7 32.6418ZM201.3 42.4918L205.179 43.8768L205.186 43.8562L205.193 43.8355L201.3 42.4918ZM191.3 43.6918L190.919 47.7921L191.3 43.6918ZM189.35 43.1418L192.926 45.1849L193.024 45.0139L193.105 44.8344L189.35 43.1418ZM197.15 25.8418L200.905 27.5344L201.701 25.7672L200.847 24.0271L197.15 25.8418ZM189.05 9.34179L192.747 7.52708L192.671 7.3716L192.582 7.22307L189.05 9.34179ZM191.1 8.89179L191.473 12.9929L191.514 12.9892L191.555 12.9847L191.1 8.89179ZM201.8 10.4418L197.894 11.744L197.938 11.8768L197.991 12.0063L201.8 10.4418ZM205.25 18.8418L201.441 20.4063L205.05 29.1938L208.996 20.5524L205.25 18.8418ZM213.024 11.7212C212.693 12.5494 212.138 12.9439 211.945 13.0605C211.765 13.1694 211.738 13.1398 212.024 13.0711C212.6 12.9329 213.686 12.8098 215.45 12.8098V4.57374C213.448 4.57374 211.609 4.70073 210.102 5.06245C208.942 5.34084 206.397 6.11254 205.377 8.66239L213.024 11.7212ZM215.45 12.8098C216.199 12.8098 217.209 12.8757 218.514 13.031L219.487 4.85262C217.992 4.67458 216.635 4.57374 215.45 4.57374V12.8098ZM218.619 13.0421C219.306 13.1061 219.692 13.1592 219.86 13.1904C219.975 13.2118 219.829 13.1942 219.58 13.1013C219.479 13.064 219.093 12.9193 218.658 12.5954C218.334 12.3543 217.032 11.3023 217.032 9.34179H225.268C225.268 7.34792 223.944 6.26259 223.575 5.98814C223.095 5.631 222.642 5.45296 222.452 5.38226C222.023 5.22273 221.609 5.13845 221.366 5.09321C220.817 4.99108 220.128 4.91085 219.382 4.84145L218.619 13.0421ZM217.454 7.52583L208.954 24.8258L216.346 28.4578L224.846 11.1578L217.454 7.52583ZM209.014 28.5751L217.814 45.1251L225.086 41.2585L216.286 24.7085L209.014 28.5751ZM217.919 45.3105C217.599 44.7765 217.331 44.0443 217.342 43.1716C217.353 42.3019 217.637 41.5851 217.958 41.0717C218.514 40.1809 219.248 39.784 219.414 39.6941C219.851 39.4581 220.179 39.402 220.055 39.4308C219.951 39.4549 219.595 39.5175 218.855 39.5979L219.745 47.7857C220.539 47.6995 221.308 47.5954 221.921 47.4528C222.155 47.3983 222.74 47.2589 223.33 46.9395C223.574 46.8079 224.359 46.3694 224.942 45.4369C225.276 44.9026 225.566 44.165 225.577 43.2745C225.588 42.3809 225.315 41.6279 224.982 41.0731L217.919 45.3105ZM218.944 39.5892C217.482 39.7163 216.309 39.7737 215.4 39.7737V48.0098C216.625 48.0098 218.052 47.9339 219.657 47.7944L218.944 39.5892ZM215.4 39.7737C213.401 39.7737 212.149 39.6336 211.466 39.4667C211.126 39.3835 211.127 39.3401 211.294 39.4446C211.481 39.5616 212.034 39.9721 212.334 40.8212L204.567 43.5624C205.067 44.9782 206.059 45.8845 206.925 46.4264C207.771 46.9559 208.691 47.2667 209.509 47.4669C211.144 47.8666 213.166 48.0098 215.4 48.0098V39.7737ZM212.284 40.6866L208.534 31.1366L200.867 34.1469L204.617 43.697L212.284 40.6866ZM200.808 31.2981L197.408 41.1481L205.193 43.8355L208.593 33.9855L200.808 31.2981ZM197.422 41.1067C197.789 40.08 198.494 39.6283 198.68 39.5229C198.871 39.4147 198.893 39.4483 198.57 39.5189C197.936 39.6577 196.766 39.7737 194.9 39.7737V48.0098C196.968 48.0098 198.832 47.8925 200.33 47.5647C201.075 47.4019 201.938 47.1439 202.746 46.6857C203.548 46.2303 204.645 45.3703 205.179 43.8768L197.422 41.1067ZM194.9 39.7737C194.106 39.7737 193.043 39.7181 191.682 39.5914L190.919 47.7921C192.424 47.9322 193.761 48.0098 194.9 48.0098V39.7737ZM191.682 39.5914C191.001 39.5281 190.797 39.4742 190.856 39.4909C190.891 39.5008 191.004 39.5338 191.161 39.6017C191.297 39.6603 191.619 39.8092 191.982 40.1019C192.33 40.3825 192.992 41.0206 193.3 42.1055C193.644 43.3238 193.356 44.4315 192.926 45.1849L185.775 41.0987C185.311 41.9104 185.014 43.0749 185.375 44.3484C185.697 45.4885 186.4 46.1803 186.812 46.513C187.562 47.1174 188.362 47.3449 188.62 47.4177C189.329 47.6178 190.167 47.7222 190.919 47.7921L191.682 39.5914ZM193.105 44.8344L200.905 27.5344L193.396 24.1492L185.596 41.4492L193.105 44.8344ZM200.847 24.0271L192.747 7.52708L185.354 11.1565L193.454 27.6565L200.847 24.0271ZM192.582 7.22307C192.882 7.72372 193.148 8.41816 193.159 9.25862C193.169 10.1066 192.916 10.8298 192.597 11.372C192.04 12.3166 191.274 12.7377 191.087 12.8391C190.804 12.9924 190.581 13.0654 190.51 13.0877C190.461 13.1031 190.425 13.113 190.404 13.1184C190.383 13.1238 190.371 13.1264 190.371 13.1266C190.37 13.1268 190.376 13.1254 190.391 13.1225C190.406 13.1197 190.427 13.116 190.455 13.1114C190.511 13.102 190.587 13.0906 190.685 13.0777C190.884 13.0515 191.144 13.0229 191.473 12.9929L190.728 4.79065C189.967 4.8598 189.214 4.94842 188.605 5.08201C188.378 5.13182 187.772 5.26707 187.158 5.60075C186.898 5.74174 186.084 6.2029 185.502 7.18817C185.171 7.75062 184.912 8.49427 184.923 9.36286C184.934 10.2239 185.206 10.939 185.519 11.4605L192.582 7.22307ZM191.555 12.9847C192.966 12.8279 194.071 12.7598 194.9 12.7598V4.52374C193.663 4.52374 192.235 4.62237 190.646 4.79893L191.555 12.9847ZM194.9 12.7598C196.874 12.7598 198.089 12.9078 198.736 13.0765C199.055 13.1596 199.036 13.1983 198.86 13.0807C198.653 12.9429 198.156 12.5321 197.894 11.744L205.707 9.13955C204.793 6.39669 202.176 5.46208 200.815 5.1071C199.161 4.67578 197.127 4.52374 194.9 4.52374V12.7598ZM197.991 12.0063L201.441 20.4063L209.06 17.2773L205.61 8.87727L197.991 12.0063ZM208.996 20.5524L212.946 11.9024L205.454 8.48121L201.504 17.1312L208.996 20.5524Z" fill="white" mask="url(#path-1-outside-1_5941_6124)"/>
    <path d="M264.139 45.3418L261.591 37.0118H248.851L246.303 45.3418H238.316L250.664 10.2088H259.729L272.126 45.3418H264.139ZM257.279 22.6548C257.116 22.0995 256.903 21.3971 256.642 20.5478C256.381 19.6985 256.119 18.8328 255.858 17.9508C255.597 17.0688 255.384 16.3011 255.221 15.6478C255.058 16.3011 254.829 17.1178 254.535 18.0978C254.274 19.0451 254.012 19.9598 253.751 20.8418C253.522 21.6911 253.343 22.2955 253.212 22.6548L250.713 30.7888H259.827L257.279 22.6548ZM287.729 10.3558C292.237 10.3558 295.52 11.3358 297.578 13.2958C299.669 15.2231 300.714 17.8855 300.714 21.2828C300.714 22.8181 300.485 24.2881 300.028 25.6928C299.571 27.0648 298.803 28.3061 297.725 29.4168C296.68 30.4948 295.291 31.3441 293.56 31.9648C291.829 32.5855 289.689 32.8958 287.141 32.8958H283.956V45.3418H276.557V10.3558H287.729ZM287.337 16.4318H283.956V26.8198H286.406C287.811 26.8198 289.019 26.6401 290.032 26.2808C291.045 25.9215 291.829 25.3498 292.384 24.5658C292.939 23.7818 293.217 22.7691 293.217 21.5278C293.217 19.7965 292.743 18.5225 291.796 17.7058C290.849 16.8565 289.362 16.4318 287.337 16.4318ZM318.498 10.3558C323.006 10.3558 326.289 11.3358 328.347 13.2958C330.437 15.2231 331.483 17.8855 331.483 21.2828C331.483 22.8181 331.254 24.2881 330.797 25.6928C330.339 27.0648 329.572 28.3061 328.494 29.4168C327.448 30.4948 326.06 31.3441 324.329 31.9648C322.597 32.5855 320.458 32.8958 317.91 32.8958H314.725V45.3418H307.326V10.3558H318.498ZM318.106 16.4318H314.725V26.8198H317.175C318.579 26.8198 319.788 26.6401 320.801 26.2808C321.813 25.9215 322.597 25.3498 323.153 24.5658C323.708 23.7818 323.986 22.7691 323.986 21.5278C323.986 19.7965 323.512 18.5225 322.565 17.7058C321.617 16.8565 320.131 16.4318 318.106 16.4318Z" fill="#393939"/>
    <defs>
        <linearGradient id="paint0_linear_5941_6124" x1="-7.05696" y1="-17.9082" x2="12.8569" y2="99.3405" gradientUnits="userSpaceOnUse">
            <stop stop-color="#FFB400"/>
            <stop offset="1" stop-color="#FF6C02"/>
        </linearGradient>
    </defs>
</svg>