<svg width="137" height="109" viewBox="0 0 137 109" fill="none" xmlns="http://www.w3.org/2000/svg">
<g id="box-open-solid 1">
<path id="Vector" d="M13.0162 8.96009C13.6537 7.66146 15.0562 6.91634 16.48 7.10794L68.5 13.6224L120.52 7.10794C121.944 6.93763 123.346 7.68275 123.984 8.96009L132.845 26.7152C134.757 30.5259 132.717 35.1456 128.637 36.3165L93.915 46.2585C90.9612 47.1101 87.795 45.854 86.2225 43.2142L68.5 13.6224L50.7775 43.2142C49.205 45.854 46.0387 47.1101 43.085 46.2585L8.38371 36.3165C4.28246 35.1456 2.26371 30.5259 4.17621 26.7152L13.0162 8.96009ZM68.7337 27.2474L80.4 46.7056C83.5662 51.9853 89.8775 54.4974 95.8062 52.7943L122.9 45.0451V80.5978C122.9 85.2814 119.712 89.3689 115.165 90.5185L71.7937 101.376C69.6262 101.929 67.3525 101.929 65.2062 101.376L21.835 90.5185C17.2875 89.3476 14.1 85.2601 14.1 80.5765V45.0238L41.215 52.7943C47.1225 54.4974 53.455 51.9853 56.6212 46.7056L68.2662 27.2474H68.7337Z" fill="url(#paint0_linear_7939_10090)"/>
</g>
<defs>
<linearGradient id="paint0_linear_7939_10090" x1="-0.668491" y1="-28.4392" x2="95.9507" y2="146.793" gradientUnits="userSpaceOnUse">
<stop stop-color="#FFB400"/>
<stop offset="1" stop-color="#FF6C02"/>
</linearGradient>
</defs>
</svg>
